<svg width="237" height="187" viewBox="0 0 237 187" fill="none" xmlns="http://www.w3.org/2000/svg">
<g clip-path="url(#clip0_1306_161414)">
<path d="M203.287 149.122C198.625 154.667 192.995 159.318 186.671 162.849C186.21 163.1 185.76 163.362 185.299 163.602L183.655 164.461C181.813 165.382 179.931 166.227 178.012 166.995C174.556 168.364 171.017 169.514 167.416 170.439C166.369 170.691 165.406 170.932 164.39 171.151L163.479 171.35L161.783 171.696C160.276 171.999 158.757 172.261 157.239 172.492C156.255 172.649 155.26 172.795 154.266 172.921C149.516 173.519 144.739 173.869 139.953 173.968H138.414H137.367C136.163 173.968 134.969 173.968 133.797 173.968C133.315 173.968 132.823 173.968 132.341 173.968H132.247H131.074H130.907C128.708 173.895 126.551 173.779 124.468 173.643L121.536 173.413C118.542 173.151 115.704 172.827 113.055 172.481C109.736 172.052 106.71 171.581 104.093 171.099C97.7056 169.966 91.423 168.306 85.3095 166.136C85.1106 166.063 84.9222 166 84.7337 165.916C81.2075 164.646 77.7572 163.174 74.3997 161.508L73.4783 161.037H73.4155L72.3685 160.493C70.6793 159.599 69.025 158.668 67.4057 157.697C65.898 156.807 64.4217 155.855 62.9768 154.881L61.6262 153.949C55.2007 149.418 49.3779 144.088 44.2981 138.087L44.1411 137.898C43.827 137.542 43.5338 137.186 43.2407 136.851C37.6202 129.94 32.9411 122.314 29.3259 114.173C24.1118 102.297 20.6994 89.7095 19.2013 76.8262C17.5994 64.0841 19.1175 53.3522 22.7821 44.5887C33.0637 20.0258 60.2755 11.0844 83.3307 17.1885C89.1762 18.7261 94.7052 21.2814 99.664 24.7374C131.2 46.9026 129.881 50.0123 172.264 55.2473C218.426 60.8174 232.446 114.068 203.287 149.122Z" fill="#FFEFDF"/>
<path d="M72.0129 116.391C79.7922 136.724 77.0176 158.051 73.8347 158.617C70.6204 159.465 68.8405 140.597 62.0558 121.615C55.4701 102.507 47.3977 90.4666 49.743 88.3831C51.7532 86.3728 64.3802 95.953 72.0129 116.391Z" fill="#6CE9A6"/>
<path d="M65.4272 125.124C72.1909 136.641 72.7563 150.116 69.3011 151.948C65.846 153.78 60.5481 144.064 54.7267 133.018C48.9054 121.972 44.6964 113.533 47.2511 111.104C49.8058 108.675 58.7263 113.502 65.4272 125.124Z" fill="#6CE9A6"/>
<path d="M74.358 161.424L72.264 160.377C70.5748 159.483 68.9205 158.551 67.3012 157.581C65.7935 156.691 64.3172 155.738 62.8723 154.765L61.5217 153.833C55.0961 149.302 49.2734 143.972 44.1936 137.971L44.0366 137.782C36.3411 128.286 36.1735 122.182 38.8015 120.349C42.1729 117.847 54.9988 124.537 63.1236 136.526C68.5052 142.881 72.8294 153.927 74.358 161.424Z" fill="#6CE9A6"/>
<path d="M59.0088 131.512C58.9536 131.511 58.9009 131.488 58.8622 131.449C58.768 131.344 49.68 120.675 40.0998 119.932C40.0545 119.927 40.0129 119.904 39.9836 119.869C39.9544 119.834 39.9398 119.789 39.9428 119.743C39.948 119.698 39.9705 119.656 40.0056 119.627C40.0407 119.598 40.0857 119.583 40.1312 119.586C49.858 120.372 59.0402 131.103 59.1345 131.25C59.1677 131.283 59.1864 131.329 59.1864 131.376C59.1864 131.423 59.1677 131.468 59.1345 131.501C59.1156 131.512 59.0946 131.519 59.0728 131.521C59.0511 131.523 59.0292 131.52 59.0088 131.512Z" fill="#340000"/>
<path d="M70.2117 137.009C70.1719 137.013 70.1321 137.002 70.0995 136.979C70.0669 136.956 70.0435 136.922 70.0337 136.883V136.747C69.2799 133.355 65.9923 121.691 55.7106 113.776C55.6774 113.743 55.6587 113.697 55.6587 113.65C55.6587 113.603 55.6774 113.558 55.7106 113.525C55.7452 113.494 55.7899 113.477 55.8362 113.477C55.8826 113.477 55.9273 113.494 55.9619 113.525C66.3273 121.513 69.6463 133.282 70.4107 136.705V136.821C70.4208 136.866 70.4135 136.914 70.3902 136.955C70.367 136.995 70.3295 137.026 70.285 137.04L70.2117 137.009Z" fill="#340000"/>
<path d="M85.0479 109.84C84.6817 108.849 84.1239 107.94 83.4063 107.164C82.6888 106.389 81.8254 105.763 80.8658 105.322C79.9061 104.88 78.8689 104.632 77.8133 104.592C76.7577 104.551 75.7046 104.719 74.7139 105.086C73.7539 105.464 72.8377 105.945 71.9812 106.52L70.9342 107.274L70.1175 108.007C69.8453 108.248 69.5626 108.489 69.3218 108.74L68.6727 109.442C68.2531 109.888 67.8582 110.356 67.4896 110.845C67.322 111.054 67.1545 111.253 66.9975 111.462C66.5787 112.028 66.2017 112.583 65.8458 113.138C65.6468 113.462 65.4374 113.787 65.2489 114.111C64.8197 114.834 64.4218 115.535 64.0344 116.205L63.9611 116.352C63.3329 117.566 62.7675 118.76 62.2336 119.954C61.2703 122.152 60.4537 124.32 59.7417 126.508L59.6789 126.696C58.569 130.162 57.5848 133.628 56.8624 137.093C56.14 140.559 55.4594 143.983 54.894 147.417C54.7279 148.419 54.7611 149.445 54.9918 150.434C55.2224 151.424 55.646 152.358 56.2383 153.184C56.8306 154.01 57.5799 154.71 58.4434 155.246C59.3068 155.782 60.2675 156.142 61.2703 156.306C63.2755 156.629 65.3272 156.151 66.9839 154.976C68.6405 153.801 69.7696 152.023 70.128 150.024V149.982C70.7039 146.841 71.3111 143.7 72.0545 140.663C72.6094 138.276 73.2795 135.942 74.002 133.659C74.2009 133.02 74.4103 132.392 74.6197 131.764C75.4493 129.296 76.4571 126.892 77.6351 124.571C77.7607 124.309 77.8969 124.058 78.033 123.807C78.603 122.752 79.2652 121.75 80.0118 120.812C80.1401 120.63 80.2875 120.461 80.4516 120.31L80.6191 120.132C80.6587 120.106 80.694 120.074 80.7238 120.037C82.933 115.996 86.5242 113.839 85.0479 109.84ZM80.6191 120.048C80.5284 120.104 80.4295 120.147 80.3259 120.174L80.6086 120.037L80.6191 120.048Z" fill="#FAA88D"/>
<path d="M80.6193 120.048V120.132L80.4518 120.31C80.2878 120.461 80.1403 120.63 80.012 120.812C79.2654 121.75 78.6032 122.752 78.0332 123.807C77.8971 124.058 77.761 124.309 77.6353 124.571C76.4574 126.893 75.4496 129.297 74.6199 131.764C74.4105 132.392 74.2011 133.021 74.0022 133.659C70.9868 131.126 62.7364 127.733 59.7314 126.55C60.4434 124.362 61.2601 122.194 62.2233 119.996C62.7573 118.802 63.3227 117.609 63.9509 116.394L64.0242 116.247C64.4116 115.536 64.8095 114.834 65.2387 114.153C65.4272 113.829 65.6366 113.504 65.8355 113.18L80.6193 120.079V120.048Z" fill="#EC8777"/>
<path d="M156.182 90.1028C151.208 77.4654 143.921 67.4559 136.906 62.5768C135.277 61.4724 133.928 60.0028 132.966 58.2851C132.005 56.5675 131.457 54.649 131.368 52.6825L130.813 38.0244C130.643 34.9516 129.325 32.0548 127.12 29.908C124.916 27.7612 121.984 26.5212 118.908 26.434L107.852 26.1094L109.401 63.6448C109.401 63.6448 101.214 108.415 107.852 125.293C115.84 145.594 144.707 137.114 153.92 133.48C163.134 129.847 164.181 110.404 156.182 90.1028Z" fill="#340000"/>
<path d="M131.755 65.5078C131.755 65.5078 163.647 98.7714 146.895 131.124" stroke="#8C3E0D" stroke-width="0.75" stroke-miterlimit="10" stroke-linecap="round"/>
<path d="M97.6122 51.6328C96.7923 58.0891 94.7642 64.3335 91.6338 70.0393C87.1735 77.8186 76.138 78.918 76.138 78.918C70.1805 79.7975 65.5946 83.263 65.0188 87.9222C64.2649 93.9949 70.5575 99.7744 79.0801 100.842C84.5351 101.523 89.5503 100.099 92.6913 97.3977L96.8165 98.9683L105.193 97.3873L106.679 89.5347L111.81 70.1545L97.6122 51.6328Z" fill="#340000"/>
<path d="M132.561 71.4529C132.561 71.4529 125.326 98.1306 96.8373 99.0101C76.2007 99.6593 79.1742 86.5613 79.1742 86.5613C79.1742 86.5613 90.9321 81.19 95.696 79.5148C98.0937 78.6772 101.214 75.442 101.57 73.0339C101.796 71.5443 101.849 70.0334 101.727 68.5317L110.543 64.0609L116.825 60.543C110.899 80.6665 132.561 71.4529 132.561 71.4529Z" fill="#FAA88D"/>
<path d="M112.616 63.5625C112.6 63.916 112.547 64.2669 112.459 64.6095C110.605 71.9386 101.507 73.216 101.507 73.216C101.733 71.7229 101.786 70.2086 101.664 68.7034L112.616 63.5625Z" fill="#EC8777"/>
<path d="M101.664 50.0557L100.617 43.8783L94.1989 36.8633C93.7505 39.7779 93.0713 42.6523 92.1677 45.4593C91.2254 48.37 87.8331 50.5164 85.3621 51.7414C84.4455 52.0472 83.5559 52.4289 82.7027 52.8826C78.4204 55.1651 75.8448 58.9552 76.5463 62.6616C77.4886 67.7187 84.1057 70.7132 91.3301 69.3625C98.5544 68.0119 103.632 62.8188 102.69 57.7722C102.471 56.6567 101.978 55.6132 101.256 54.7358L101.559 54.3902L101.664 50.0557Z" fill="#340000"/>
<path d="M84.7547 68.8893C84.7107 68.8973 84.6656 68.8958 84.6223 68.885C84.5789 68.8742 84.5384 68.8542 84.5034 68.8265C83.0092 67.615 81.9926 65.9131 81.6342 64.0231C81.2758 62.1332 81.5986 60.1774 82.5455 58.5029C83.9276 55.7493 86.4823 54.3149 88.9532 52.8386C92.178 50.954 95.5284 49.0171 96.5021 44.138C96.5174 44.0533 96.5657 43.9781 96.6364 43.929C96.7071 43.8799 96.7944 43.861 96.8791 43.8762C96.9646 43.894 97.0398 43.9443 97.0887 44.0167C97.1376 44.0891 97.1563 44.1777 97.1408 44.2636C96.0938 49.4254 92.6282 51.4461 89.2778 53.3935C86.7754 54.8489 84.4301 56.21 83.1318 58.7961C82.2295 60.3284 81.9106 62.1348 82.2338 63.8833C82.5569 65.6319 83.5004 67.205 84.8908 68.3134C84.9581 68.3653 85.0024 68.4415 85.0142 68.5257C85.0259 68.6099 85.0042 68.6954 84.9536 68.7637C84.904 68.8276 84.8336 68.872 84.7547 68.8893Z" fill="#8C3E0D"/>
<path d="M87.4876 74.9619C87.4236 74.9713 87.3583 74.9625 87.299 74.9366C87.2398 74.9107 87.189 74.8687 87.1525 74.8153C87.1078 74.7424 87.0926 74.6553 87.1101 74.5716C87.1277 74.4879 87.1765 74.414 87.2467 74.3652C91.4348 71.5487 93.3089 66.2195 94.1046 63.8951C94.4711 62.8481 94.5339 62.6387 94.8271 62.5968C94.8698 62.5909 94.9132 62.5935 94.9548 62.6046C94.9964 62.6157 95.0355 62.635 95.0696 62.6613C95.1037 62.6877 95.1322 62.7205 95.1535 62.758C95.1748 62.7954 95.1884 62.8367 95.1935 62.8795C95.2027 62.9368 95.1958 62.9954 95.1736 63.049C95.1514 63.1026 95.1148 63.149 95.0679 63.1831C95.0051 63.3087 94.8585 63.7171 94.7224 64.1149C93.8952 66.4498 91.9792 71.9256 87.6132 74.8677L87.4876 74.9619Z" fill="#8C3E0D"/>
<path d="M77.4992 94.5939H77.4363C71.3218 94.5939 68.9032 91.7146 67.9504 89.3589C66.6731 86.2178 67.4688 82.6057 67.8666 82.2288C67.8968 82.1984 67.9327 82.1742 67.9723 82.1577C68.0118 82.1413 68.0542 82.1328 68.097 82.1328C68.1398 82.1328 68.1822 82.1413 68.2218 82.1577C68.2613 82.1742 68.2972 82.1984 68.3273 82.2288C68.3825 82.2887 68.4132 82.3672 68.4132 82.4486C68.4132 82.5301 68.3825 82.6085 68.3273 82.6685C67.6119 85.0333 67.8061 87.5802 68.8718 89.8091C70.3062 92.5628 73.1855 93.9972 77.4363 93.9972C77.5224 93.9972 77.605 94.0314 77.6659 94.0923C77.7267 94.1531 77.7609 94.2356 77.7609 94.3217C77.7511 94.3887 77.7207 94.451 77.6737 94.4999C77.6268 94.5487 77.5657 94.5815 77.4992 94.5939Z" fill="#8C3E0D"/>
<path d="M116.699 61.0696C112.017 64.934 106.512 67.6741 100.607 69.0792C99.1586 69.4304 97.6322 69.2426 96.3125 68.551C94.9927 67.8593 93.9698 66.711 93.4346 65.3205C93.3404 65.0692 93.2566 64.797 93.1833 64.5247C90.6705 55.6566 91.7384 36.1612 100.847 33.2401C109.956 30.3189 117.673 29.2719 119.694 37.4281C121.536 44.9352 117.348 58.986 116.699 61.0696Z" fill="#FAA88D"/>
<path d="M118.008 54.4102C118.008 54.4102 117.945 60.1478 114.532 60.619C114.532 60.619 118.479 63.8646 119.945 59.2369C121.411 54.6091 119.945 54.4102 119.945 54.4102H118.008Z" fill="#340000"/>
<path d="M103.099 43.3845L103.214 48.473L110.396 47.6773L110.522 43.3008L103.099 43.3845Z" fill="#EC8777"/>
<path d="M93.4975 42.9141L92.4819 46.966L98.764 48.2119L100.293 43.1653L93.4975 42.9141Z" fill="#EC8777"/>
<path d="M113.349 54.9761C113.349 55.3694 113.271 55.7588 113.121 56.1221C112.97 56.4854 112.75 56.8155 112.471 57.0936C112.193 57.3716 111.863 57.5922 111.5 57.7427C111.137 57.8932 110.747 57.9706 110.354 57.9706C109.562 57.9678 108.803 57.6511 108.243 57.0898C107.684 56.5286 107.37 55.7685 107.37 54.9761C107.373 54.1856 107.688 53.4282 108.247 52.8692C108.806 52.3102 109.564 51.9949 110.354 51.9922C111.146 51.9922 111.907 52.3062 112.468 52.8655C113.029 53.4248 113.346 54.1838 113.349 54.9761Z" fill="#EC8777"/>
<path d="M110.522 43.2987C110.7 42.8589 110.04 42.639 109.716 42.4715C105.873 40.3775 102.711 43.0369 103.099 43.7803C103.486 44.5236 110.313 43.7489 110.522 43.2987Z" fill="#340000"/>
<path d="M92.6808 42.6418C92.5342 42.1916 93.2043 42.0136 93.5394 41.867C97.518 40.108 100.492 42.9141 100.052 43.6365C99.612 44.359 92.8274 43.1025 92.6808 42.6418Z" fill="#340000"/>
<path d="M93.2881 28.3691C97.3191 28.6727 100.408 31.2798 100.188 34.1801C99.968 37.0803 96.5234 39.1848 92.4924 38.8811C88.4614 38.5775 85.3727 35.9809 85.5926 33.0702C85.8125 30.1595 89.2571 28.0655 93.2881 28.3691Z" fill="#340000"/>
<path d="M114.626 26.2746C114.731 29.3109 107.297 38.598 98.2716 36.9227C89.2464 35.2475 85.9692 28.065 88.5763 25.0078C91.1415 21.7411 96.2614 23.0394 102.69 24.746C106.564 25.8753 110.592 26.3911 114.626 26.2746Z" fill="#340000"/>
<path d="M124.583 33.2597L120.824 31.2913L116.73 31.0401L115.505 30.9667H115.369L108.04 30.7049L98.7952 29.5742L96.2719 30.3595L94.6595 31.0296L92.9424 35.8353L95.2144 38.7146C95.2144 38.7146 96.8582 34.8512 103.004 35.071C104.26 35.1463 105.484 35.4966 106.589 36.0973C107.695 36.698 108.655 37.5343 109.401 38.547C111.83 41.6148 112.993 51.5719 118.961 49.2894C124.929 47.0069 126.29 39.0705 126.29 39.0705L124.583 33.2597Z" fill="#340000"/>
<path d="M95.4345 34.4314H95.2984C87.4773 32.5154 87.2888 27.7724 87.2783 27.563C87.2783 27.4769 87.3125 27.3944 87.3734 27.3335C87.4342 27.2727 87.5168 27.2385 87.6029 27.2385C87.645 27.2371 87.687 27.2441 87.7263 27.2593C87.7656 27.2744 87.8015 27.2973 87.8318 27.3266C87.8621 27.356 87.8862 27.3911 87.9026 27.4299C87.919 27.4687 87.9275 27.5103 87.9275 27.5525C87.9275 27.7305 88.1473 32.0127 95.4555 33.8345C95.4964 33.8443 95.5349 33.8622 95.5687 33.8871C95.6026 33.912 95.6311 33.9435 95.6526 33.9796C95.674 34.0157 95.6881 34.0558 95.6938 34.0975C95.6995 34.1391 95.6968 34.1814 95.6858 34.2219C95.6672 34.2766 95.6339 34.3251 95.5896 34.362C95.5452 34.399 95.4916 34.423 95.4345 34.4314Z" fill="#8C3E0D"/>
<path d="M103.172 48.0975C103.172 47.8253 103.371 47.5635 103.737 47.3332C104.283 47.0273 104.878 46.8217 105.496 46.726C105.888 46.657 106.283 46.6115 106.679 46.5898H106.993C108.836 46.5898 110.312 47.0505 110.344 47.752C110.375 48.4535 109.161 48.9875 107.517 49.1864H106.805C106.274 49.209 105.741 49.1881 105.214 49.1237C104.03 49.0294 103.193 48.621 103.172 48.0975Z" fill="white"/>
<path d="M92.0735 47.3725C92.0735 47.1212 92.2933 46.9014 92.6389 46.7338C93.3232 46.4403 94.0616 46.294 94.8062 46.3045C95.1304 46.2839 95.4556 46.2839 95.7799 46.3045H95.9579L96.7327 46.4092C98.2404 46.6814 99.3188 47.2783 99.2769 47.8855C99.235 48.4928 98.0728 48.9325 96.5442 48.9325C96.2406 48.9325 95.916 48.9325 95.5705 48.9325C95.225 48.9325 94.9109 48.8592 94.6072 48.8069C93.0995 48.5661 92.0316 47.9693 92.0735 47.3725Z" fill="white"/>
<path d="M100.292 42.9141L96.7222 54.4626L100.806 54.7453L100.292 42.9141Z" fill="#FAA88D"/>
<path d="M110.396 47.6758C110.306 47.4758 110.173 47.2979 110.006 47.155C109.84 47.012 109.644 46.9075 109.433 46.8486C108.899 46.6278 108.333 46.4935 107.757 46.4507C106.626 46.3966 105.496 46.5785 104.438 46.9847C104.145 47.0894 104.344 47.5187 104.627 47.414C105.546 47.0649 106.523 46.8943 107.506 46.9115C107.986 46.9286 108.461 47.0096 108.92 47.1523C109.297 47.2779 109.841 47.4454 109.967 47.8642C110.092 48.283 110.49 47.9585 110.396 47.6758Z" fill="#282828"/>
<path d="M99.0361 47.3105C97.3714 46.0854 95.2459 46.1484 93.2985 46.4939C93.0053 46.4939 93.0576 47.0173 93.3508 46.965C95.1621 46.6404 97.1829 46.5253 98.7429 47.677C98.9838 47.855 99.2769 47.4884 99.0361 47.3105Z" fill="#282828"/>
<path d="M100.135 54.5133H97.7482C97.4026 54.5133 97.0781 54.5134 97.0466 54.0631C97.0943 53.8312 97.1792 53.6084 97.2979 53.4035C97.3922 53.1836 97.4759 52.9743 97.5597 52.7544C97.7377 52.2728 97.9157 51.7911 98.0832 51.299C98.7195 49.4222 99.2164 47.5009 99.5699 45.5509C99.6223 45.2578 99.1616 45.1217 99.1093 45.4253C98.6806 47.7717 98.0501 50.0767 97.2246 52.3146C97.0257 52.8276 96.7744 53.3616 96.6174 53.8746C96.5468 54.0317 96.529 54.2075 96.5667 54.3755C96.6045 54.5435 96.6957 54.6947 96.8268 54.8065C97.2292 54.9912 97.6772 55.0531 98.1146 54.9845H100.125C100.179 54.9731 100.227 54.9434 100.262 54.9005C100.297 54.8577 100.316 54.8042 100.316 54.749C100.316 54.6938 100.297 54.6403 100.262 54.5974C100.227 54.5545 100.179 54.5247 100.125 54.5133H100.135Z" fill="#EC8777"/>
<path d="M118.866 55.0806C121.041 55.0806 122.803 53.318 122.803 51.1438C122.803 48.9696 121.041 47.207 118.866 47.207C116.692 47.207 114.93 48.9696 114.93 51.1438C114.93 53.318 116.692 55.0806 118.866 55.0806Z" fill="#FAA88D"/>
<path d="M118.961 53.6555C118.602 53.662 118.245 53.5944 117.914 53.4567C117.62 53.3307 117.354 53.1494 117.128 52.9227L117.024 52.8598C116.962 52.8139 116.919 52.7477 116.902 52.673C116.885 52.5982 116.894 52.5197 116.93 52.4515C116.969 52.3852 117.031 52.3352 117.103 52.3102C117.176 52.2853 117.256 52.2871 117.327 52.3153C117.391 52.3408 117.46 52.3535 117.528 52.3525C117.597 52.3516 117.665 52.3372 117.728 52.31C117.792 52.2827 117.849 52.2433 117.897 52.1939C117.945 52.1446 117.983 52.0861 118.008 52.0222C118.035 51.959 118.049 51.8911 118.05 51.8224C118.05 51.7536 118.037 51.6856 118.011 51.6221C117.984 51.5586 117.945 51.5011 117.896 51.4529C117.847 51.4047 117.789 51.3669 117.725 51.3417C117.597 51.2896 117.454 51.29 117.327 51.343C117.199 51.3959 117.098 51.4971 117.045 51.6244C117.022 51.6877 116.978 51.7415 116.922 51.7775C116.865 51.8135 116.798 51.8296 116.731 51.8233C116.666 51.8176 116.604 51.7926 116.554 51.7516C116.503 51.7105 116.466 51.6553 116.448 51.593L116.375 51.3417C116.335 50.9163 116.404 50.4877 116.574 50.0957C116.703 49.7859 116.892 49.5052 117.132 49.2697C117.371 49.0341 117.654 48.8487 117.966 48.7242C118.276 48.5943 118.609 48.5273 118.945 48.5273C119.281 48.5273 119.614 48.5943 119.924 48.7242C119.962 48.739 119.998 48.7616 120.027 48.7905C120.057 48.8194 120.08 48.854 120.096 48.8922C120.111 48.9305 120.119 48.9715 120.118 49.0128C120.118 49.0541 120.108 49.0949 120.091 49.1325C120.059 49.2085 119.998 49.2687 119.922 49.3001C119.845 49.3314 119.76 49.3313 119.683 49.2999C119.45 49.1988 119.199 49.1466 118.945 49.1466C118.691 49.1466 118.44 49.1988 118.207 49.2999C117.971 49.3947 117.756 49.5364 117.576 49.7164C117.396 49.8963 117.255 50.1108 117.16 50.347C117.095 50.4942 117.05 50.6491 117.024 50.8077C117.174 50.7404 117.336 50.7056 117.5 50.7056C117.664 50.7056 117.827 50.7404 117.977 50.8077C118.258 50.9237 118.482 51.1463 118.599 51.4268C118.717 51.7073 118.719 52.0229 118.605 52.3049C118.501 52.5479 118.321 52.7503 118.092 52.8808H118.175C118.411 52.9786 118.663 53.0291 118.917 53.0294C119.172 53.0297 119.424 52.9799 119.659 52.8827C119.895 52.7854 120.109 52.6427 120.289 52.4627C120.469 52.2827 120.612 52.069 120.709 51.8338C120.724 51.7952 120.747 51.76 120.776 51.7305C120.804 51.701 120.839 51.6777 120.877 51.662C120.916 51.6463 120.957 51.6386 120.998 51.6394C121.039 51.6401 121.08 51.6492 121.118 51.6662C121.192 51.7006 121.25 51.7619 121.281 51.8376C121.312 51.9133 121.314 51.9979 121.285 52.0746C121.095 52.5365 120.773 52.9325 120.36 53.2135C119.947 53.4945 119.46 53.6482 118.961 53.6555Z" fill="#EC8777"/>
<path d="M93.2776 46.7035C93.0259 46.6424 92.8009 46.5011 92.6366 46.3009C92.4723 46.1007 92.3776 45.8525 92.3667 45.5938" stroke="#282828" stroke-width="0.5" stroke-miterlimit="10" stroke-linecap="round"/>
<path d="M104.501 47.1746C104.268 47.0602 104.077 46.8723 103.96 46.6398C103.843 46.4073 103.805 46.1428 103.852 45.8867" stroke="#282828" stroke-width="0.5" stroke-miterlimit="10" stroke-linecap="round"/>
<path d="M108.752 25.9922L115.537 26.3063C115.537 26.3063 121.819 31.0807 122.102 46.3566C122.102 46.3566 121.934 47.6863 119.872 46.4403C117.809 45.1944 120.154 36.3262 108.752 25.9922Z" fill="#C73112"/>
<path d="M81.2789 118.487C80.6716 125.733 79.321 130.968 76.5778 129.837L74.9131 128.968L73.7404 128.361C66.9453 124.905 59.6162 121.901 59.6162 121.901L63.7205 109.525C69.2278 89.1187 80.9543 85.2656 80.9543 85.2656C80.9543 85.2656 82.3678 105.232 81.2789 118.487Z" fill="#A4CDFF"/>
<path d="M81.2788 118.486C80.6715 125.732 79.3209 130.967 76.5777 129.836L74.913 128.967L73.7403 128.36C69.9501 124.318 70.9762 111.084 70.9762 111.084L77.7818 109.922C77.7818 109.922 79.8025 114.78 81.2788 118.486Z" fill="#8EBEED"/>
<path d="M139.482 173.841H137.943H131.828H130.781H130.572L84.2313 165.779C80.7051 164.509 77.2547 163.037 73.8973 161.371L72.9759 160.9L79.2057 122.244C76.6393 121.233 74.4683 119.42 73.0156 117.075C71.563 114.73 70.9064 111.978 71.1437 109.23C71.3211 106.73 72.2154 104.335 73.7193 102.33C75.9213 98.5835 77.3457 94.4314 77.9073 90.122C78.0575 88.609 78.7099 87.19 79.7606 86.091C81.3311 84.4053 92.0525 80.4686 92.0525 80.4686C92.0525 80.4686 92.1362 87.5045 103.203 85.599C106.44 85.0571 109.521 83.8186 112.233 81.9693C114.944 80.12 117.222 77.704 118.908 74.8881L124.384 72.8673V72.7207L125.086 72.6055L135.556 70.8047L134.938 85.3267L133.462 119.69L139.482 173.841Z" fill="#A4CDFF"/>
<path d="M134.959 142.652H136.257C136.338 142.652 136.416 142.682 136.476 142.736C136.536 142.79 136.574 142.865 136.582 142.946L137.189 149.071C137.194 149.116 137.188 149.161 137.174 149.204C137.16 149.247 137.137 149.287 137.106 149.321C137.075 149.354 137.038 149.381 136.996 149.399C136.955 149.417 136.91 149.427 136.865 149.426H135.378L134.959 142.652Z" fill="#8C3E0D"/>
<path d="M136.854 173.873C135.65 173.873 134.457 173.873 133.284 173.873C132.31 173.873 131.347 173.873 130.394 173.79C128.196 173.716 126.039 173.601 123.955 173.465L121.024 173.235C118.029 172.973 115.192 172.648 112.543 172.303C109.224 171.873 106.198 171.402 103.58 170.921C97.193 169.788 90.9104 168.128 84.797 165.958C81.0741 164.627 77.4314 163.082 73.8871 161.33L72.9029 160.828L77.7611 125.313C77.7611 125.313 67.5841 116.591 72.1176 105.189C72.1176 105.189 75.0702 98.4152 75.5623 96.9703C75.5623 96.9703 112.396 98.6665 126.259 87.9766C126.259 87.9766 126.552 97.0855 126.929 101.399C128.332 117.261 131.211 120.591 134.101 120.591L136.854 173.873Z" fill="#3071B2"/>
<path d="M96.2512 58.5459C96.2345 58.4834 96.2328 58.4178 96.2464 58.3546C96.26 58.2913 96.2884 58.2322 96.3293 58.1821C96.3702 58.1321 96.4224 58.0925 96.4816 58.0665C96.5408 58.0405 96.6054 58.029 96.6699 58.0329C98.8687 58.1794 103.832 57.7397 103.999 58.4307C104.167 59.1218 101.036 61.9382 98.3556 61.0483C97.8136 60.8566 97.3327 60.5235 96.9627 60.0836C96.5927 59.6436 96.347 59.1127 96.2512 58.5459Z" fill="white"/>
<path d="M100.806 62.3584C100.806 62.5887 100.219 62.9342 99.5073 62.9342C98.7953 62.9342 98.209 62.5887 98.209 62.3584C98.209 62.1281 98.7848 62.1489 99.5073 62.1489C100.23 62.1489 100.806 62.1281 100.806 62.3584Z" fill="#EC8777"/>
<path d="M97.874 118.066C97.874 118.066 101.423 123.071 111.736 120.893" stroke="#1F5B8C" stroke-linecap="round" stroke-linejoin="round"/>
<path d="M114.249 106.719L113.485 118.99L112.019 142.327C111.904 144.212 111.087 144.641 110.207 144.62L78.2841 143.709C77.3941 143.709 76.7869 142.097 76.9335 140.192L79.7708 104.185C79.8755 102.771 80.4409 102.091 81.0901 101.934C81.2969 101.872 81.5138 101.85 81.7288 101.871L113.034 104.269C113.893 104.331 114.364 104.886 114.249 106.719Z" fill="#3F3F3F"/>
<path d="M113.453 118.989L111.988 142.327C111.872 144.212 111.056 144.641 110.176 144.62L78.2529 143.709C77.3629 143.709 76.7556 142.097 76.9022 140.191L79.7396 104.185C79.8443 102.771 80.4097 102.091 81.0588 101.934C81.0588 101.934 77.8026 135.197 79.4046 136.914C81.0065 138.631 110.448 135.982 112.794 121.439C112.906 120.597 113.128 119.774 113.453 118.989Z" fill="#333333"/>
<path d="M145.262 110.351C145.262 110.351 138.32 114.539 138.152 112.633C137.985 110.727 142.655 106.477 142.655 106.477L145.262 110.351Z" fill="#5B8EC1"/>
<path d="M118.5 71.8125L123.955 72.5455C123.955 72.5455 122.803 84.8687 123.264 91.7267C123.287 92.0649 123.187 92.4002 122.983 92.6712C122.78 92.9422 122.485 93.1309 122.154 93.203L117.777 94.25C117.57 94.2986 117.354 94.3 117.145 94.254C116.937 94.2079 116.742 94.1156 116.574 93.9839C116.406 93.8522 116.27 93.6845 116.176 93.4931C116.081 93.3018 116.031 93.0917 116.029 92.8784C115.987 89.308 117.202 78.8798 118.5 71.8125Z" fill="#8C3E0D"/>
<path d="M164 132.5C160 131.3 148.5 119.5 144 112.5L154 100L164 132.5Z" fill="#FAA88D"/>
<path d="M134.959 85.2656L134.048 106.478C126.332 98.7093 129.012 86.4488 129.012 86.4488L134.959 85.2656Z" fill="#8EBEED"/>
<path d="M155.407 96.7703L153.512 101.932C153.512 101.932 145.984 107.879 146.392 115.826C145.115 114.077 143.879 112.287 142.665 110.455C141.199 108.204 139.817 105.879 138.477 103.398L138.11 102.675V91.9959L149.219 90.5195L153.742 93.5559C154.287 94.6029 154.81 95.6814 155.407 96.7703Z" fill="#EC8777"/>
<path d="M124.353 72.6594C124.353 72.6594 147.461 63.6237 151.01 80.4073C154.559 97.1909 155.512 96.9919 155.512 96.9919C155.512 96.9919 141.974 106.949 138.153 112.634C138.153 112.634 126.3 80.135 124.353 72.6594Z" fill="#A4CDFF"/>
<path d="M151.889 64.9626C151.889 64.9626 152.664 60.1567 151.889 58.2302C151.115 56.3037 153.648 56.5864 154.559 58.1046C155.606 59.874 156.768 65.0987 155.334 66.376C153.9 67.6534 151.659 66.8891 151.889 64.9626Z" fill="#FAA88D"/>
<path d="M152.099 63.3086C152.099 63.3086 150.005 74.2708 156.213 75.7471C162.422 77.2234 159.271 67.2768 155.083 64.23L152.099 63.3086Z" fill="#FAA88D"/>
<path d="M167.898 63.8853C167.898 63.8853 164.757 73.5911 164.338 77.1195C163.919 80.648 155.46 76.753 154.978 73.5073C154.496 70.2615 156.245 63.4141 156.245 63.4141L167.898 63.8853Z" fill="#FAA88D"/>
<path d="M156.224 63.9144C156.224 63.9144 157.951 48.0208 162.443 45.8325C166.935 43.6443 160.485 53.1616 161.396 58.8782C161.406 58.8887 162.087 66.4901 156.224 63.9144Z" fill="#FAA88D"/>
<path d="M164.432 56.6916C164.135 56.507 163.79 56.4163 163.44 56.4313C163.091 56.4462 162.754 56.5661 162.474 56.7753C161.197 57.6758 158.81 59.5394 158.517 60.9634C158.119 62.9318 156.977 66.01 158.579 66.9209C160.181 67.8318 161.092 62.7329 161.092 62.7329L165.228 59.8431C165.228 59.8431 166.034 57.7386 164.432 56.6916Z" fill="#FAA88D"/>
<path d="M166.055 58.6934C165.773 58.5195 165.444 58.4336 165.112 58.4466C164.781 58.4597 164.46 58.5711 164.192 58.7666C162.977 59.6252 160.705 61.4051 160.423 62.7662C160.046 64.6403 158.967 67.5615 160.485 68.4305C162.003 69.2995 162.873 64.41 162.873 64.41L166.809 61.6564C166.809 61.6564 167.574 59.6881 166.055 58.6934Z" fill="#FAA88D"/>
<path d="M167.27 61.2563C167.019 61.1016 166.728 61.025 166.433 61.0362C166.139 61.0474 165.854 61.1458 165.616 61.3191C164.569 62.0834 162.527 63.6644 162.286 64.8685C161.941 66.5332 160.988 69.1194 162.339 69.8942C163.689 70.6689 164.433 66.3238 164.433 66.3238L167.919 63.8843C168.111 63.4351 168.151 62.9358 168.034 62.4618C167.917 61.9878 167.649 61.5647 167.27 61.2563Z" fill="#FAA88D"/>
<path d="M154.119 65.468C154.119 65.468 155.313 65.9601 156.213 63.9184C157.114 61.8767 156.862 67.9703 156.862 67.9703C156.862 67.9703 156.747 69.3419 155.993 68.965C155.239 68.588 154.119 65.468 154.119 65.468Z" fill="#FAA88D"/>
<path d="M161.092 57.8438C161.092 57.8438 158.758 59.9378 158.517 60.9848C158.276 62.0318 157.177 65.4555 158.004 66.3455" stroke="#EC8777" stroke-width="0.5" stroke-miterlimit="10" stroke-linecap="round"/>
<path d="M163.228 59.4688C163.228 59.4688 160.893 61.5628 160.653 62.6098C160.412 63.6568 159.323 67.07 160.15 67.96" stroke="#EC8777" stroke-width="0.5" stroke-miterlimit="10" stroke-linecap="round"/>
<path d="M165.929 61.1641C165.929 61.1641 162.621 63.5198 162.38 64.5564C162.139 65.5929 160.977 68.3989 161.804 69.2889" stroke="#EC8777" stroke-width="0.5" stroke-miterlimit="10" stroke-linecap="round"/>
<path d="M165.113 66.1367C162.534 68.0681 160.632 70.7653 159.679 73.8427" stroke="#EC8777" stroke-width="0.5" stroke-miterlimit="10" stroke-linecap="round"/>
<path d="M157.428 67.1602C157.428 67.1602 159.752 69.5473 159.469 71.411" stroke="#EC8777" stroke-width="0.5" stroke-miterlimit="10" stroke-linecap="round"/>
<path d="M105.004 126.497C105.004 126.497 109.789 125.586 111.286 124.204C112.784 122.822 113.443 125.251 112.333 126.685C111.035 128.277 106.522 131.156 104.826 130.235C103.13 129.313 103.109 126.947 105.004 126.497Z" fill="#FAA88D"/>
<path d="M106.627 126.129C106.627 126.129 95.6122 127.909 96.3451 134.254C97.078 140.599 105.349 134.254 106.815 129.228L106.627 126.129Z" fill="#FAA88D"/>
<path d="M111.516 141.205C111.274 140.846 110.944 140.556 110.557 140.361C110.17 140.167 109.74 140.075 109.307 140.095C108.241 140.101 107.182 140.266 106.166 140.587C104.987 141.482 103.626 142.108 102.179 142.421C100.732 142.734 99.2336 142.726 97.7899 142.399C94.3871 141.352 95.0886 133.929 97.9783 132.368C100.868 130.808 107.883 130.086 107.883 130.086L111.516 141.205Z" fill="#FAA88D"/>
<path d="M117.066 135.45C117.14 135.108 117.108 134.752 116.975 134.429C116.843 134.106 116.615 133.83 116.322 133.639C115.034 132.749 112.459 131.136 111.014 131.356C109.025 131.66 105.779 131.639 105.444 133.45C105.109 135.262 110.281 134.351 110.281 134.351L114.417 137.251C114.417 137.251 116.594 137.314 117.066 135.45Z" fill="#FAA88D"/>
<path d="M116.595 132.643C116.662 132.302 116.627 131.948 116.492 131.627C116.358 131.307 116.131 131.033 115.841 130.842C114.553 129.952 111.988 128.34 110.532 128.559C108.554 128.853 105.297 128.842 104.962 130.653C104.627 132.465 109.8 131.554 109.8 131.554L113.935 134.454C113.935 134.454 116.186 134.506 116.595 132.643Z" fill="#FAA88D"/>
<path d="M115.746 137.646C115.813 137.321 115.781 136.984 115.654 136.678C115.527 136.372 115.311 136.111 115.034 135.929C113.809 135.081 111.37 133.552 109.988 133.762C108.103 134.044 104.993 134.034 104.69 135.762C104.386 137.489 109.286 136.62 109.286 136.62L113.223 139.374C113.223 139.374 115.338 139.415 115.746 137.646Z" fill="#FAA88D"/>
<path d="M113.757 139.68C113.816 139.392 113.787 139.093 113.675 138.821C113.563 138.549 113.373 138.316 113.129 138.152C112.082 137.408 109.873 136.058 108.648 136.225C106.973 136.476 104.219 136.466 103.957 138.005C103.695 139.544 108.03 138.769 108.03 138.769L111.517 141.209C111.517 141.209 113.391 141.251 113.757 139.68Z" fill="#FAA88D"/>
<path d="M105.287 128.766C105.287 128.766 105.234 130.053 107.465 130.211C109.695 130.368 103.884 132.2 103.884 132.2C103.884 132.2 102.554 132.566 102.648 131.739C102.743 130.912 105.287 128.766 105.287 128.766Z" fill="#FAA88D"/>
<path d="M115.935 133.366C115.935 133.366 113.024 131.617 111.632 131.586" stroke="#EC8777" stroke-width="0.5" stroke-miterlimit="10" stroke-linecap="round"/>
<path d="M115.024 136.004C115.024 136.004 112.333 134.067 110.94 134.035" stroke="#EC8777" stroke-width="0.5" stroke-miterlimit="10" stroke-linecap="round"/>
<path d="M113.684 138.6C113.684 138.6 111.223 136.453 109.831 136.422" stroke="#EC8777" stroke-width="0.5" stroke-miterlimit="10" stroke-linecap="round"/>
<path d="M110.072 128.549C110.072 128.549 105.538 128.109 103.57 129.041" stroke="#EC8777" stroke-width="0.5" stroke-miterlimit="10" stroke-linecap="round"/>
<path d="M154.119 74.6806C156.213 77.8216 150.036 112.373 156.538 125.44C163.04 138.506 175.384 131.502 173.29 119.461C171.196 107.421 164.914 84.5749 164.39 76.8165C164.39 76.8165 152.653 72.5028 154.119 74.6806Z" fill="#FAA88D"/>
<path d="M153.899 95.0547C153.254 102.298 153.345 109.587 154.172 116.811" stroke="#EC8777" stroke-width="0.5" stroke-miterlimit="10" stroke-linecap="round"/>
<path d="M163.49 129.27C163.49 129.27 165.982 130.673 170.327 129.27C170.327 129.27 165.804 134.075 163.49 129.27Z" fill="#EC8777"/>
<path d="M84.3675 82.6259L90.4297 80.668C90.4297 80.668 87.4143 92.3526 87.3515 97.7761C87.3432 98.1029 87.2069 98.4134 86.9719 98.6406C86.7368 98.8678 86.4219 98.9935 86.095 98.9907H82.4829C82.3031 98.9925 82.1251 98.9553 81.961 98.8819C81.797 98.8085 81.6507 98.7005 81.5324 98.5652C81.414 98.4299 81.3263 98.2707 81.2753 98.0983C81.2243 97.9259 81.2112 97.7445 81.2369 97.5666C81.9098 92.5158 82.9561 87.5219 84.3675 82.6259Z" fill="#8C3E0D"/>
<path d="M96.4395 132.39C87.2467 133.5 67.2384 133.918 59.4067 140.378C49.4915 148.566 57.1138 159.822 66.7358 156.157C76.3578 152.492 90.639 143.394 96.9839 141.834C97.0153 141.834 98.9 132.086 96.4395 132.39Z" fill="#FAA88D"/>
<path d="M109.171 109.909C109.888 109.909 110.47 109.328 110.47 108.611C110.47 107.894 109.888 107.312 109.171 107.312C108.454 107.312 107.873 107.894 107.873 108.611C107.873 109.328 108.454 109.909 109.171 109.909Z" fill="#545454"/>
<path d="M109.171 109.796C109.824 109.796 110.354 109.266 110.354 108.613C110.354 107.959 109.824 107.43 109.171 107.43C108.517 107.43 107.988 107.959 107.988 108.613C107.988 109.266 108.517 109.796 109.171 109.796Z" fill="#212121"/>
<path d="M73.0702 135.125C73.0702 135.125 64.0555 136.8 59.4067 140.36" stroke="#EC8777" stroke-width="0.5" stroke-miterlimit="10" stroke-linecap="round"/>
<path d="M214.071 125.524C208.951 150.788 181.101 167.603 171.332 163.279C161.249 159.667 174.724 145.145 183.603 126.696C192.859 108.049 193.843 93.8621 200.617 91.255C206.543 88.2082 219.421 100.584 214.071 125.524Z" fill="#6CE9A6"/>
<path d="M186.88 117.439C182.127 137.909 162.799 153.038 159.543 151.53C156.014 150.713 169.856 137.092 175.625 119.534C181.708 101.975 178.64 90.5312 181.331 88.9607C183.341 87.1599 191.812 97.1589 186.88 117.439Z" fill="#6CE9A6"/>
<path d="M210.511 136.159H210.438C210.397 136.138 210.366 136.103 210.35 136.06C210.334 136.017 210.336 135.97 210.354 135.928C219.557 114.925 213.076 101.544 213.014 101.377C213.003 101.357 212.996 101.335 212.994 101.313C212.992 101.29 212.994 101.268 213.001 101.246C213.008 101.225 213.019 101.205 213.034 101.188C213.049 101.17 213.067 101.156 213.087 101.147C213.129 101.127 213.177 101.124 213.221 101.137C213.266 101.151 213.304 101.18 213.328 101.22C213.39 101.356 219.945 114.831 210.668 136.033C210.661 136.069 210.641 136.101 210.612 136.124C210.584 136.147 210.548 136.159 210.511 136.159Z" fill="#340000"/>
<path d="M176.735 139.509C176.689 139.503 176.646 139.481 176.615 139.446C176.584 139.412 176.567 139.367 176.567 139.32C176.909 138.419 177.374 137.57 177.949 136.797C181.164 131.562 188.692 119.301 188.221 106.706C188.221 106.66 188.238 106.616 188.269 106.583C188.3 106.55 188.343 106.53 188.388 106.528C188.411 106.526 188.434 106.529 188.455 106.537C188.477 106.545 188.497 106.557 188.513 106.573C188.53 106.589 188.543 106.607 188.552 106.629C188.562 106.65 188.566 106.672 188.566 106.695C189.048 119.395 181.478 131.719 178.253 136.975C177.739 137.723 177.29 138.515 176.913 139.341C176.913 139.364 176.908 139.387 176.899 139.408C176.89 139.429 176.877 139.448 176.86 139.463C176.844 139.479 176.824 139.491 176.802 139.499C176.781 139.507 176.758 139.51 176.735 139.509Z" fill="#340000"/>
<path d="M173.489 167.353C170.736 172.65 155.962 176.462 142.435 169.447C128.907 162.432 120.175 152.412 122.939 147.114C125.704 141.816 138.885 143.23 152.413 150.255C165.94 157.28 176.274 162.065 173.489 167.353Z" fill="#12B76A"/>
<path d="M172.756 136.189C159.679 146.753 161.427 163.411 161.427 173.075C161.427 173.075 180.713 170.636 193.791 160.071C206.868 149.507 213.6 138.293 207.496 130.755C201.392 123.217 185.833 125.625 172.756 136.189Z" fill="#12B76A"/>
<path d="M169.804 170.166C169.207 170.386 168.599 170.616 167.992 170.825C167.385 171.035 166.547 171.318 165.825 171.558L165.05 171.81C164.283 172.052 163.47 172.111 162.677 171.982C161.883 171.854 161.13 171.54 160.48 171.068C159.829 170.595 159.298 169.977 158.93 169.262C158.562 168.547 158.367 167.756 158.36 166.951C158.36 162.439 158.192 157.382 157.721 152.231C156.444 135.761 152.863 124.035 156.203 122.014C159.187 119.92 169.228 130.212 171.364 149.236C172.173 156.249 171.644 163.351 169.804 170.166Z" fill="#12B76A"/>
<path d="M164.034 148.411H163.961C163.92 148.391 163.888 148.356 163.87 148.314C163.853 148.271 163.852 148.224 163.867 148.181C165.842 144.04 168.54 140.285 171.835 137.093C175.469 133.519 179.796 130.725 184.549 128.884C189.302 127.042 194.382 126.19 199.476 126.382C199.499 126.382 199.521 126.386 199.542 126.396C199.563 126.405 199.582 126.418 199.598 126.435C199.614 126.451 199.626 126.471 199.634 126.493C199.641 126.514 199.645 126.537 199.643 126.56C199.639 126.606 199.618 126.648 199.586 126.681C199.553 126.713 199.511 126.733 199.465 126.738H198.607C173.552 126.738 164.286 148.107 164.191 148.327C164.176 148.355 164.153 148.377 164.125 148.392C164.097 148.407 164.066 148.413 164.034 148.411Z" fill="#340000"/>
<path d="M164.474 157.309C164.441 157.322 164.403 157.322 164.37 157.309C164.223 157.204 149.711 146.63 131.724 144.159C131.7 144.156 131.678 144.149 131.657 144.137C131.636 144.126 131.618 144.11 131.604 144.092C131.589 144.073 131.578 144.052 131.572 144.03C131.566 144.007 131.564 143.983 131.567 143.96C131.577 143.915 131.602 143.876 131.639 143.849C131.675 143.822 131.72 143.809 131.766 143.813C149.889 146.295 164.432 156.922 164.579 157.026C164.612 157.06 164.631 157.105 164.631 157.152C164.631 157.199 164.612 157.244 164.579 157.278C164.547 157.297 164.511 157.308 164.474 157.309Z" fill="#340000"/>
<path d="M106.773 49.5203C107.658 49.5203 108.375 48.8031 108.375 47.9183C108.375 47.0336 107.658 46.3164 106.773 46.3164C105.889 46.3164 105.171 47.0336 105.171 47.9183C105.171 48.8031 105.889 49.5203 106.773 49.5203Z" fill="#282828"/>
<path d="M95.6752 49.614C96.5599 49.614 97.2771 48.8968 97.2771 48.0121C97.2771 47.1274 96.5599 46.4102 95.6752 46.4102C94.7904 46.4102 94.0732 47.1274 94.0732 48.0121C94.0732 48.8968 94.7904 49.614 95.6752 49.614Z" fill="#282828"/>
<path d="M67.4581 69.5913C58.5062 69.5913 55.4385 64.4714 54.4438 60.1682C54.36 59.7913 54.2867 59.4249 54.2239 59.0584C54.0225 57.76 53.9558 56.4442 54.025 55.1321L60.4327 54.4515L62.3592 54.2422H62.6209C58.3701 64.126 67.4581 69.5913 67.4581 69.5913Z" fill="white"/>
<path d="M60.4327 54.4102C59.5951 54.8499 55.9829 56.8392 54.2239 59.017C54.0225 57.7186 53.9558 56.4029 54.025 55.0907L60.4327 54.4102Z" fill="#EFEFEF"/>
<path d="M55.8259 55.2992C67.5065 55.2992 76.9755 45.8302 76.9755 34.1496C76.9755 22.469 67.5065 13 55.8259 13C44.1453 13 34.6763 22.469 34.6763 34.1496C34.6763 45.8302 44.1453 55.2992 55.8259 55.2992Z" fill="white"/>
<path d="M54.0145 55.2969C54.0145 55.2969 53.3863 61.3068 56.9985 65.4844" stroke="#282828" stroke-width="0.5" stroke-linecap="round" stroke-linejoin="round"/>
<path d="M55.868 55.2988C55.868 55.2988 49.1672 55.592 44.2881 51.8438" stroke="#282828" stroke-width="0.5" stroke-linecap="round" stroke-linejoin="round"/>
<path d="M50.9364 25.941L50.3291 20.9258C51.1339 20.3019 52.0458 19.83 53.0199 19.5333C54.0421 19.2472 55.0995 19.1062 56.161 19.1145C58.0128 19.0053 59.8387 19.5915 61.2809 20.7582C62.1243 21.4926 62.7142 22.4747 62.9665 23.5643C63.2344 24.6472 63.2091 25.782 62.8932 26.8519C62.5858 27.9235 62.0339 28.9091 61.2809 29.7312C60.0264 31.1688 58.457 32.2975 56.6949 33.0293V35.8562H52.7687V30.7991L53.355 30.5269L54.0879 30.1813L54.7999 29.8254L55.5851 29.4065C55.784 29.2914 56.0039 29.1448 56.2447 28.9877C56.4652 28.846 56.6751 28.6886 56.8729 28.5166C57.2469 28.2214 57.55 27.8463 57.7602 27.4187C57.9703 26.9912 58.0821 26.522 58.0875 26.0457C58.0881 25.7203 58.0204 25.3984 57.8887 25.1008C57.7571 24.8032 57.5644 24.5365 57.3232 24.3181C56.7442 23.8166 55.9941 23.5578 55.2291 23.5957C54.3944 23.5604 53.5658 23.752 52.8315 24.1505C52.102 24.6345 51.461 25.2402 50.9364 25.941ZM52.8315 42.6303C52.5647 42.3724 52.3558 42.0607 52.2186 41.7159C52.0814 41.3712 52.019 41.0013 52.0357 40.6306C52.0204 40.2601 52.0833 39.8903 52.2204 39.5457C52.3575 39.2012 52.5657 38.8895 52.8315 38.6308C53.3312 38.1482 54.0005 37.8811 54.6952 37.8873C55.3962 37.8801 56.0724 38.1469 56.5798 38.6308C56.8474 38.8885 57.0575 39.1998 57.1965 39.5445C57.3354 39.8891 57.4 40.2593 57.386 40.6306C57.4007 41.002 57.3364 41.3722 57.1974 41.717C57.0584 42.0617 56.8479 42.3729 56.5798 42.6303C56.0759 43.1209 55.3983 43.3919 54.6952 43.3841C54.3501 43.3881 54.0076 43.3235 53.6877 43.194C53.3678 43.0646 53.0768 42.873 52.8315 42.6303Z" fill="black"/>
</g>
<defs>
<clipPath id="clip0_1306_161414">
<rect width="200" height="160.988" fill="white" transform="translate(18.5 13)"/>
</clipPath>
</defs>
</svg>
