<svg width="237" height="188" viewBox="0 0 237 188" fill="none" xmlns="http://www.w3.org/2000/svg">
<path d="M205.8 102.452C202.7 108.252 198.6 113.452 193.7 117.952C193.3 118.252 193 118.652 192.6 118.952L191.3 120.152C189.8 121.452 188.3 122.652 186.7 123.752C183.9 125.852 180.9 127.752 177.8 129.552C177 130.052 176.1 130.552 175.2 130.952L174.4 131.352L172.9 132.152C171.6 132.852 170.3 133.452 168.9 134.152C168.1 134.552 167.2 134.952 166.3 135.352C160.3 138.052 154.1 140.252 147.9 142.252C147 142.552 146.1 142.752 145.2 143.052C143.2 143.652 141.2 144.252 139.3 144.752L136.6 145.452C133.8 146.152 131.2 146.752 128.7 147.252C125.6 147.852 122.7 148.452 120.2 148.852C114.2 149.852 108.1 150.452 102 150.552C97.6 150.652 93.3 150.452 88.9 149.952C87.2 149.752 85.5 149.552 83.8 149.252C82.2 149.052 80.7 148.752 79.1 148.452L77.7 148.152C70.5 146.552 63.6 143.852 57.1 140.352C50.6 136.752 44.6 132.252 39.4 126.952C32.1 119.452 26.1 110.752 21.9 101.152C17.6 91.8522 16.6 83.0522 18 75.2522C21.9 53.2522 44.7 38.2522 67 36.2522C72.5 35.6522 78.1 36.0522 83.6 37.2522C117.3 45.0522 116.7 47.8522 156.5 39.3522C199.9 29.8522 224.6 66.7522 205.8 102.452Z" fill="#FFEFDF"/>
<path d="M193.7 139.152C195.3 135.552 194.6 131.852 192.1 130.752C189.6 129.652 186.3 131.652 184.7 135.152C183.1 138.752 183.8 142.452 186.3 143.552C188.8 144.752 192.1 142.752 193.7 139.152Z" fill="#FFEFDF"/>
<path d="M210.5 115.851C211.9 115.851 212.9 114.751 212.9 113.451C212.9 112.151 211.8 111.051 210.5 111.051C209.1 111.051 208 112.151 208 113.451C208.1 114.751 209.2 115.851 210.5 115.851Z" fill="#FFEFDF"/>
<path d="M27.2003 79.7511C28.5003 79.2511 29.0003 77.8511 28.5003 76.5511C28.0003 75.3511 26.5003 74.7511 25.3003 75.2511C24.0003 75.7511 23.5003 77.1511 24.0003 78.4511C24.5003 79.7511 26.0003 80.2511 27.2003 79.7511Z" fill="#EAD7C5"/>
<path d="M24.5 115.05C25.6 114.35 26.8 117.05 28.2 119.25C29.6 121.45 30.7 122.35 29.6 123.05C28.5 123.75 26.4 122.55 25 120.35C23.7 118.15 23.4 115.75 24.5 115.05Z" fill="#FFEFDF"/>
<path d="M137.5 38.9519C137.7 40.2519 134.7 40.1519 132.1 40.5519C129.5 40.8519 128.2 41.4519 128 40.1519C127.8 38.8519 129.8 37.5519 132.4 37.2519C135.1 36.8519 137.3 37.6519 137.5 38.9519Z" fill="#FFEFDF"/>
<path d="M216.3 46.5528C218.9 49.1528 219.5 52.7528 217.6 54.5528C215.7 56.4528 213.5 55.0528 210.9 52.5528C208.3 49.9528 206.4 47.1528 208.3 45.2528C210.1 43.3528 213.7 43.9528 216.3 46.5528Z" fill="#FFEFDF"/>
<path d="M187.4 123.252C190.6 119.252 197.1 109.152 195.1 96.1516V96.0516C195.1 96.0516 195.1 95.9516 195.2 95.9516L195.3 95.8516H195.4H195.5C195.5 95.8516 195.6 95.8516 195.6 95.9516L195.7 96.0516V96.1516C197.5 107.752 192.7 116.952 189.3 121.852L187.4 123.252Z" fill="#EAD7C5"/>
<path d="M195.4 97.1501C195.4 97.1501 190.9 92.2502 190.3 88.0502C189.8 83.8502 194.5 84.1501 196 90.2501C197.6 96.4501 195.4 97.1501 195.4 97.1501Z" fill="#EAD7C5"/>
<path d="M195.7 101.55C195.7 101.45 200.5 88.6498 202.1 92.8498C203.8 96.9498 195.6 103.75 195.6 103.75L195.7 101.55Z" fill="#EAD7C5"/>
<path d="M195 108.151C194.8 107.951 185.1 100.351 187.3 97.7513C189.5 95.1513 195.6 104.751 195.6 104.751L195 108.151Z" fill="#EAD7C5"/>
<path d="M190.3 119.55C190.3 119.55 182.1 107.95 185.6 105.75C189 103.55 192.7 115.15 192.7 115.15L190.3 119.55Z" fill="#EAD7C5"/>
<path d="M194.8 109.851C194.8 109.851 201.8 99.3513 202.7 103.651C203.6 107.951 193.3 113.851 193.3 113.851L194.8 109.851Z" fill="#EAD7C5"/>
<path d="M84.7002 37.25C80.2002 37.65 67.5002 39.75 59.2002 51.05L59.1002 51.15H59.0002H58.9002C58.9002 51.15 58.8002 51.15 58.8002 51.05L58.7002 50.95V50.85V50.75C58.7002 50.75 58.7002 50.65 58.8002 50.65C66.2002 40.45 77.2002 37.55 82.8002 36.75L84.7002 37.25Z" fill="#EAD7C5"/>
<path d="M59.7999 50.0496C59.7999 50.0496 59.4999 56.6496 56.8999 60.0496C54.2999 63.4496 51.1999 59.8496 54.3999 54.4496C57.5999 49.0496 59.7999 50.0496 59.7999 50.0496Z" fill="#EAD7C5"/>
<path d="M62.5999 46.752C62.5999 46.752 50.0999 52.452 51.8999 48.352C53.6999 44.252 64.2999 45.252 64.2999 45.252L62.5999 46.752Z" fill="#EAD7C5"/>
<path d="M67.8 42.6523C67.8 42.9523 69.3 55.1523 65.9 55.4523C62.5 55.7523 65.1 44.6523 65.1 44.6523L67.8 42.6523Z" fill="#EAD7C5"/>
<path d="M79.2005 37.8516C79.2005 37.8516 76.8005 51.7516 72.8005 50.9516C68.8005 50.1516 74.5005 39.3516 74.5005 39.3516L79.2005 37.8516Z" fill="#EAD7C5"/>
<path d="M69.1997 41.551C69.1997 41.551 56.7997 44.051 59.2997 40.351C61.7997 36.651 73.1997 39.751 73.1997 39.751L69.1997 41.551Z" fill="#EAD7C5"/>
<path d="M58.3998 150.152C58.1998 150.152 46.5998 150.452 39.2998 141.052C39.2998 141.052 39.2998 141.052 39.2998 140.952C39.2998 140.952 39.2998 140.952 39.2998 140.852C39.2998 140.852 39.2998 140.852 39.2998 140.752C39.2998 140.752 39.2998 140.752 39.2998 140.652C39.2998 140.652 39.2998 140.652 39.3998 140.652C39.3998 140.652 39.3998 140.652 39.4998 140.652C39.4998 140.652 39.4998 140.652 39.5998 140.652C39.5998 140.652 39.5998 140.652 39.6998 140.652C46.8998 149.952 58.2998 149.652 58.3998 149.652C58.3998 149.652 58.3998 149.652 58.4998 149.652C58.4998 149.652 58.4998 149.652 58.5998 149.652C58.5998 149.652 58.5998 149.652 58.5998 149.752C58.5998 149.752 58.5998 149.752 58.5998 149.852C58.4998 149.952 58.4998 150.052 58.3998 150.152C58.4998 150.152 58.3998 150.152 58.3998 150.152Z" fill="#FFEFDF"/>
<path d="M39.9997 141.451C39.9997 141.451 39.6997 136.951 37.8997 134.751C36.0997 132.551 33.9997 134.951 36.2997 138.651C38.4997 142.251 39.9997 141.451 39.9997 141.451Z" fill="#FFEFDF"/>
<path d="M41.8996 143.651C41.8996 143.651 33.2996 139.951 34.5996 142.751C35.8996 145.551 42.9996 144.651 42.9996 144.651L41.8996 143.651Z" fill="#FFEFDF"/>
<path d="M45.5996 146.352C45.5996 146.152 46.3996 137.852 43.9996 137.652C41.6996 137.452 43.5996 144.952 43.5996 144.952L45.5996 146.352Z" fill="#FFEFDF"/>
<path d="M53.4003 149.453C53.4003 149.453 51.5003 140.053 48.8003 140.653C46.1003 141.253 50.1003 148.553 50.1003 148.553L53.4003 149.453Z" fill="#FFEFDF"/>
<path d="M46.5001 147.149C46.5001 147.149 38.0001 145.649 39.8001 148.149C41.6001 150.649 49.3001 148.249 49.3001 148.249L46.5001 147.149Z" fill="#FFEFDF"/>
<mask id="mask0_2214_12511" style="mask-type:alpha" maskUnits="userSpaceOnUse" x="17" y="24" width="196" height="127">
<path d="M205.8 102.451C202.7 108.251 198.6 113.451 193.7 117.951C193.3 118.251 193 118.651 192.6 118.951L191.3 120.151C189.8 121.451 188.3 122.651 186.7 123.751C183.9 125.851 180.9 127.751 177.8 129.551C177 130.051 176.1 130.551 175.2 130.951L174.4 131.351L172.9 132.151C171.6 132.851 170.3 133.451 168.9 134.151C168.1 134.551 167.2 134.951 166.3 135.351C160.3 138.051 154.1 140.251 147.9 142.251C147 142.551 146.1 142.751 145.2 143.051C143.2 143.651 141.2 144.251 139.3 144.751L136.6 145.451C133.8 146.151 131.2 146.751 128.7 147.251C125.6 147.851 122.7 148.451 120.2 148.851C114.2 149.851 108.1 150.451 102 150.551C97.6 150.651 93.3 150.451 88.9 149.951C87.2 149.751 85.5 149.551 83.8 149.251C82.2 149.051 80.7 148.751 79.1 148.451L77.7 148.151C70.5 146.551 63.6 143.851 57.1 140.351C50.6 136.751 44.6 132.251 39.4 126.951C32.1 119.451 26.1 110.751 21.9 101.151C17.6 91.8513 16.6 83.0513 18 75.2513C21.9 53.2513 44.7 26.2913 67 24.2913C72.5 23.6913 78.1 24.0913 83.6 25.2913C117.3 33.0913 116.7 35.8913 156.5 27.3913C199.9 17.8913 224.6 66.7513 205.8 102.451Z" fill="#FFEFDF"/>
</mask>
<g mask="url(#mask0_2214_12511)">
<path d="M63.3213 87.7969H127.77C131.138 87.7969 133.85 90.5095 133.85 93.877V144.014C133.85 147.382 131.138 150.094 127.77 150.094H63.3213C59.9539 150.094 57.2412 147.382 57.2412 144.014V93.9705C57.2412 90.6031 59.9539 87.7969 63.3213 87.7969Z" fill="#8BC0C2"/>
<path opacity="0.3" d="M63.3213 87.7969H127.77C131.138 87.7969 133.85 90.5095 133.85 93.877V144.014C133.85 147.382 131.138 150.094 127.77 150.094H63.3213C59.9539 150.094 57.2412 147.382 57.2412 144.014V93.9705C57.2412 90.6031 59.9539 87.7969 63.3213 87.7969Z" fill="black"/>
<path d="M60.0479 90.6946C60.0479 91.2558 60.2349 91.7235 60.6091 92.0977C60.9832 92.4719 61.4509 92.6589 62.0122 92.6589H128.519C129.641 92.6589 130.483 91.7235 130.483 90.6011C130.483 90.0398 130.296 89.5721 129.922 89.198C129.548 88.8238 129.08 88.6367 128.519 88.6367H62.1057C60.9832 88.6367 60.0479 89.5721 60.0479 90.6946Z" fill="#263238"/>
<path d="M84.836 88.5453C84.7425 82.933 80.2526 78.4431 74.8273 78.5366C69.402 78.6301 65.0056 83.2136 65.0991 88.826C65.1927 94.4383 69.6826 98.9283 75.1079 98.8347C80.6267 98.7412 84.9295 94.1577 84.836 88.5453Z" fill="#FFBB01" stroke="#C4900C" stroke-width="0.75" stroke-miterlimit="10"/>
<path d="M74.4527 96.4957V94.5314C73.4237 94.5314 72.3013 94.1572 71.6465 93.6895L72.1142 92.38C72.769 92.8477 73.7044 93.1283 74.8268 93.1283C76.1364 93.1283 76.9783 92.2864 76.9783 91.2575C76.9783 90.2286 76.2299 89.5738 74.8268 89.0125C72.956 88.2642 71.74 87.4224 71.74 85.7386C71.74 84.1485 72.769 82.9325 74.4527 82.6518V80.6875H75.5752V82.5583C76.6976 82.5583 77.4459 82.8389 78.0072 83.2131L77.5395 84.4291C77.1653 84.242 76.417 83.7743 75.201 83.7743C73.7979 83.7743 73.2367 84.7097 73.2367 85.458C73.2367 86.487 73.985 86.9547 75.5752 87.6094C77.4459 88.3578 78.4749 89.3867 78.4749 91.0704C78.4749 92.567 77.5395 93.9701 75.5752 94.3443V96.3086L74.4527 96.4957Z" fill="white"/>
<path d="M68.2274 132.11L44.9996 78.7748C44.4256 77.4809 45.0449 75.9349 46.3388 75.3608L76.241 62.3119C77.5349 61.7379 79.0809 62.3572 79.6549 63.6511L102.883 116.986C103.457 118.28 102.837 119.826 101.544 120.4L71.6413 133.449C70.3474 134.023 68.8014 133.404 68.2274 132.11Z" fill="#6F6AFF"/>
<path d="M77.1694 72.4679C76.9745 72.1351 76.6263 71.9447 76.2935 72.1397C75.9608 72.3346 75.7703 72.6828 75.9653 73.0156C76.1603 73.3484 76.5085 73.5388 76.8412 73.3438C77.174 73.1488 77.3644 72.8007 77.1694 72.4679Z" fill="white"/>
<path d="M77.3819 71.5281C77.2922 71.5544 77.2922 71.5544 77.2024 71.5807C76.7644 71.4166 76.3791 71.432 76.02 71.5372C75.5077 71.7848 75.2801 72.3388 75.2801 72.3388C75.2166 72.4549 75.1269 72.4812 75.0371 72.5075C74.921 72.444 74.8948 72.3542 74.8685 72.2644C74.8685 72.2644 75.1332 71.5046 75.825 71.2044C76.2476 70.9832 76.8388 71.0049 77.3928 71.2325C77.5089 71.296 77.5352 71.3857 77.5615 71.4755C77.4717 71.5018 77.4717 71.5018 77.3819 71.5281Z" fill="white"/>
<path d="M77.6303 70.3837C77.5405 70.41 77.5405 70.41 77.4508 70.4363C76.6909 70.1715 76.01 70.1761 75.4079 70.4499C74.5628 70.8925 74.1711 71.8844 74.1711 71.8844C74.1077 72.0005 74.0179 72.0268 73.9281 72.0531C73.8121 71.9896 73.7858 71.8999 73.7595 71.8101C73.7595 71.8101 74.1883 70.6123 75.2129 70.1172C75.9048 69.817 76.6755 69.7862 77.6412 70.0881C77.7573 70.1516 77.7835 70.2413 77.8098 70.3311C77.7835 70.2413 77.7201 70.3574 77.6303 70.3837Z" fill="white"/>
<path d="M77.9437 69.1227C77.8539 69.149 77.8539 69.149 77.7641 69.1753C76.6824 68.8099 75.7058 68.8036 74.8344 69.1564C73.5405 69.7304 73.0745 71.134 73.0745 71.134C73.011 71.2501 72.9213 71.2764 72.8315 71.3027C72.7154 71.2392 72.6891 71.1494 72.6628 71.0597C72.6365 70.9699 73.1923 69.54 74.6395 68.8236C75.5743 68.3548 76.6406 68.3348 77.8648 68.8534C77.9808 68.9169 78.0071 69.0066 78.0334 69.0964C78.0334 69.0964 78.0334 69.0964 77.9437 69.1227Z" fill="white"/>
<path d="M68.9604 83.2818L64.4092 72.8164L61.2352 74.1967L65.7864 84.6621L68.9604 83.2818Z" fill="#9293FF"/>
<path d="M74.4535 96.1373L69.9023 85.6719L66.7284 87.0522L71.2796 97.5176L74.4535 96.1373Z" fill="#9293FF"/>
<path d="M80.0698 109.04L75.5186 98.5742L72.3446 99.9545L76.8958 110.42L80.0698 109.04Z" fill="#9293FF"/>
<path d="M85.685 121.946L81.1338 111.48L77.9599 112.861L82.511 123.326L85.685 121.946Z" fill="#9293FF"/>
<path d="M89.644 116.381L87.8693 112.32C87.2164 110.756 87.8729 109.004 89.4098 108.262C90.973 107.609 92.7248 108.265 93.4675 109.802L95.2421 113.864C95.895 115.427 95.2386 117.179 93.7017 117.921C92.1648 118.664 90.3866 117.918 89.644 116.381Z" fill="#E5FD93"/>
<path d="M56.3352 88.8015L51.8213 78.4219L50.1914 79.1307L54.7053 89.5103L56.3352 88.8015Z" fill="#9293FF"/>
<path d="M73.1291 127.356L68.6152 116.977L66.9854 117.685L71.4993 128.065L73.1291 127.356Z" fill="#9293FF"/>
<path d="M75.7724 116.905L77.7895 58.7607C77.8298 57.3458 79.0254 56.1864 80.4404 56.2268L113.003 57.3411C114.418 57.3814 115.578 58.577 115.537 59.992L113.52 118.136C113.48 119.551 112.284 120.711 110.869 120.67L78.3064 119.556C76.8914 119.516 75.7321 118.32 75.7724 116.905Z" fill="#FF6436"/>
<path d="M109.583 66.9135C109.637 66.5316 109.319 66.1886 108.947 66.2275C108.565 66.1733 108.222 66.4913 108.261 66.8634C108.207 67.2453 108.525 67.5883 108.897 67.5494C109.186 67.6133 109.529 67.2953 109.583 66.9135Z" fill="white"/>
<path d="M110.166 66.1971C110.073 66.2069 110.073 66.2069 109.97 66.1235C109.652 65.7805 109.261 65.6333 108.879 65.5792C108.311 65.5444 107.894 66.0581 107.894 66.0581C107.811 66.1609 107.625 66.1803 107.615 66.0873C107.513 66.004 107.493 65.8179 107.586 65.8082C107.586 65.8082 108.179 65.182 108.933 65.1973C109.408 65.2418 109.893 65.3793 110.323 65.8986C110.426 65.9819 110.445 66.168 110.352 66.1777C110.259 66.1874 110.166 66.1971 110.166 66.1971Z" fill="white"/>
<path d="M110.916 65.2688C110.823 65.2785 110.823 65.2785 110.72 65.1952C110.094 64.6023 109.497 64.2884 108.938 64.3467C107.998 64.3508 107.229 65.0895 107.229 65.0895C107.146 65.1922 106.96 65.2116 106.95 65.1186C106.847 65.0353 106.828 64.8492 106.921 64.8395C106.921 64.8395 107.773 63.9981 108.993 63.9648C109.747 63.9802 110.437 64.2843 111.166 64.9606C111.268 65.0439 111.288 65.23 111.195 65.2397C111.009 65.2591 110.916 65.2688 110.916 65.2688Z" fill="white"/>
<path d="M111.665 64.346C111.572 64.3557 111.572 64.3557 111.47 64.2724C110.628 63.4198 109.742 63.042 108.895 63.0364C107.49 63.0891 106.461 64.043 106.471 64.136C106.388 64.2388 106.202 64.2582 106.192 64.1652C106.089 64.0818 106.07 63.8958 106.163 63.8861C106.256 63.8764 107.358 62.7267 108.95 62.6546C109.983 62.6408 110.971 63.1018 111.915 64.0378C112.018 64.1211 112.038 64.3072 111.945 64.3169C111.759 64.3363 111.759 64.3363 111.665 64.346Z" fill="white"/>
<path d="M97.3903 73.1901L97.7852 61.7852L94.3263 61.6654L93.9314 73.0704L97.3903 73.1901Z" fill="#FF7E5E"/>
<path d="M96.9782 87.2136L97.373 75.8086L93.9142 75.6888L93.5193 87.0938L96.9782 87.2136Z" fill="#FF7E5E"/>
<path d="M96.4723 101.237L96.8672 89.832L93.4083 89.7123L93.0135 101.117L96.4723 101.237Z" fill="#FF7E5E"/>
<path d="M95.9665 115.257L96.3613 103.852L92.9024 103.732L92.5076 115.137L95.9665 115.257Z" fill="#FF7E5E"/>
<path d="M101.971 112.005L102.166 107.565C102.27 105.861 103.642 104.589 105.336 104.6C107.04 104.705 108.312 106.077 108.3 107.771L108.106 112.211C108.001 113.915 106.629 115.187 104.935 115.176C103.232 115.071 101.857 113.616 101.971 112.005Z" fill="#5F68FD"/>
<path d="M83.6826 72.7334L84.0742 61.4219L82.298 61.3604L81.9064 72.6719L83.6826 72.7334Z" fill="#FF7E5E"/>
<path d="M82.2705 114.796L82.6621 103.484L80.8859 103.423L80.4943 114.734L82.2705 114.796Z" fill="#FF7E5E"/>
<path d="M85.8228 91.8699C85.6877 86.1922 81.2266 81.7311 75.8192 81.8663C70.4119 82.0015 65.9508 86.5977 66.086 92.1402C66.2212 97.818 70.6823 102.279 76.0896 102.144C81.497 102.144 85.8228 97.5476 85.8228 91.8699Z" fill="#FFBB01" stroke="#C4900C" stroke-width="0.5" stroke-miterlimit="10"/>
<path d="M75.4131 99.8469V97.9543C74.3316 97.9543 73.2501 97.684 72.5742 97.1432L72.9798 95.9266C73.6557 96.3321 74.602 96.7377 75.6834 96.7377C77.0353 96.7377 77.8464 95.9266 77.8464 94.8451C77.8464 93.7636 77.0353 93.2229 75.6834 92.547C73.7909 91.8711 72.5742 90.9248 72.5742 89.3026C72.5742 87.6804 73.6557 86.4637 75.2779 86.1934V84.3008H76.3594V86.1934C77.4408 86.1934 78.2519 86.4637 78.7927 86.8693L78.3871 88.0859C77.9816 87.8156 77.1705 87.41 76.089 87.41C74.602 87.41 74.1964 88.3563 74.1964 89.0322C74.1964 89.9785 74.8723 90.5192 76.4946 91.1952C78.3871 92.0063 79.3334 92.9525 79.4686 94.5747C79.4686 96.0618 78.5223 97.5488 76.6297 97.8192V99.8469H75.4131Z" fill="white"/>
<path d="M64.8189 94.9062L131.045 88.1713C132.542 87.9843 133.851 89.2003 133.851 90.884V147.288C133.851 148.972 132.635 150.375 131.045 150.562L64.8189 157.204C63.3223 157.391 62.0127 156.175 62.0127 154.491V98.0865C62.0127 96.4964 63.3223 94.9997 64.8189 94.9062Z" fill="#8BC0C2"/>
<path d="M129.454 90.4167C129.454 90.5102 129.547 90.6038 129.734 90.6038L132.073 90.3232C132.166 90.3232 132.26 90.2296 132.26 90.0425C132.26 89.949 132.166 89.8555 131.979 89.8555L129.641 90.1361C129.547 90.1361 129.454 90.3232 129.454 90.4167ZM124.216 90.9779C124.216 91.0715 124.309 91.165 124.496 91.165L126.835 90.8844C126.928 90.8844 127.022 90.7909 127.022 90.6038C127.022 90.5102 126.928 90.4167 126.741 90.4167L124.403 90.6973C124.309 90.6973 124.216 90.7909 124.216 90.9779ZM119.071 91.4456C119.071 91.5392 119.164 91.6327 119.352 91.6327L121.69 91.3521C121.784 91.3521 121.877 91.2586 121.877 91.0715C121.877 90.9779 121.784 90.8844 121.596 90.8844L119.258 91.165C119.164 91.2586 119.071 91.3521 119.071 91.4456ZM113.833 92.0069C113.833 92.1004 113.926 92.194 114.113 92.194L116.452 91.9133C116.545 91.9133 116.639 91.8198 116.639 91.6327C116.639 91.5392 116.545 91.4456 116.358 91.4456L114.02 91.7263C113.926 91.7263 113.833 91.9133 113.833 92.0069ZM108.594 92.5681C108.594 92.6617 108.688 92.7552 108.875 92.7552L111.214 92.4746C111.307 92.4746 111.401 92.381 111.401 92.194C111.401 92.1004 111.307 92.0069 111.12 92.0069L108.782 92.2875C108.688 92.2875 108.594 92.381 108.594 92.5681ZM103.45 93.0358C103.45 93.1294 103.543 93.2229 103.73 93.2229L106.069 92.9423C106.162 92.9423 106.256 92.8487 106.256 92.6617C106.256 92.5681 106.162 92.4746 105.975 92.4746L103.637 92.7552C103.543 92.8487 103.356 92.9423 103.45 93.0358ZM98.2115 93.5971C98.2115 93.6906 98.3051 93.7841 98.4922 93.7841L100.831 93.5035C100.924 93.5035 101.018 93.41 101.018 93.2229C101.018 93.1294 100.924 93.0358 100.737 93.0358L98.3986 93.3164C98.3051 93.3164 98.2115 93.5035 98.2115 93.5971ZM92.9733 94.1583C92.9733 94.2518 93.0669 94.3454 93.2539 94.3454L95.5924 94.0648C95.686 94.0648 95.7795 93.9712 95.7795 93.7841C95.7795 93.6906 95.686 93.5971 95.4989 93.5971L93.1604 93.8777C93.0669 93.8777 92.9733 93.9712 92.9733 94.1583ZM87.8286 94.626C87.8286 94.7195 87.9222 94.8131 88.1093 94.8131L90.4477 94.5325C90.5413 94.5325 90.6348 94.4389 90.6348 94.2518C90.6348 94.1583 90.5413 94.0648 90.3542 94.0648L88.0157 94.3454C87.8286 94.4389 87.7351 94.5325 87.8286 94.626ZM82.5904 95.1872C82.5904 95.2808 82.6839 95.3743 82.871 95.3743L85.2095 95.0937C85.3031 95.0937 85.3966 95.0001 85.3966 94.8131C85.3966 94.7195 85.3031 94.626 85.116 94.626L82.7775 94.9066C82.684 94.9066 82.5904 95.0937 82.5904 95.1872ZM77.3522 95.7485C77.3522 95.842 77.4457 95.9356 77.6328 95.9356L79.9713 95.6549C80.0648 95.6549 80.1584 95.5614 80.1584 95.3743C80.1584 95.2808 80.0648 95.1872 79.8778 95.1872L77.5393 95.4679C77.4457 95.4679 77.3522 95.5614 77.3522 95.7485ZM72.2075 96.2162C72.2075 96.3097 72.301 96.4032 72.4881 96.4032L74.8266 96.1226C74.9202 96.1226 75.0137 96.0291 75.0137 95.842C75.0137 95.7485 74.9202 95.6549 74.7331 95.6549L72.3946 95.9356C72.2075 96.0291 72.114 96.1226 72.2075 96.2162ZM67.1564 96.7774L67.2499 96.9645L69.5884 96.6839C69.6819 96.6839 69.7755 96.5903 69.7755 96.4032C69.7755 96.3097 69.6819 96.2162 69.4949 96.2162L67.1564 96.4968V96.7774ZM64.1631 99.9578V100.519C64.1631 100.613 64.2566 100.8 64.4437 100.8C64.5372 100.8 64.7243 100.706 64.7243 100.519V99.9578C64.7243 99.3965 64.9114 98.8353 65.192 98.3676C65.2856 98.274 65.192 98.087 65.0985 98.087C65.0049 97.9934 64.8179 98.087 64.8179 98.1805C64.3502 98.7417 64.1631 99.3965 64.1631 99.9578ZM64.1631 103.419V105.851C64.1631 105.944 64.2566 106.131 64.4437 106.131C64.5372 106.131 64.7243 106.038 64.7243 105.851V103.512C64.7243 103.419 64.6308 103.232 64.4437 103.232C64.2566 103.232 64.1631 103.325 64.1631 103.419ZM64.1631 108.657V110.995C64.1631 111.089 64.2566 111.276 64.4437 111.276C64.5372 111.276 64.7243 111.183 64.7243 110.995V108.657C64.7243 108.563 64.6308 108.376 64.4437 108.376C64.2566 108.47 64.1631 108.563 64.1631 108.657ZM64.1631 113.895V116.234C64.1631 116.327 64.2566 116.514 64.4437 116.514C64.5372 116.514 64.7243 116.421 64.7243 116.234V113.895C64.7243 113.802 64.6308 113.615 64.4437 113.615C64.2566 113.708 64.1631 113.802 64.1631 113.895ZM64.1631 119.133V121.472C64.1631 121.565 64.2566 121.753 64.4437 121.753C64.5372 121.753 64.7243 121.659 64.7243 121.472V119.133C64.7243 119.04 64.6308 118.853 64.4437 118.853C64.2566 118.946 64.1631 119.04 64.1631 119.133ZM64.1631 124.372V126.71C64.1631 126.804 64.2566 126.991 64.4437 126.991C64.5372 126.991 64.7243 126.897 64.7243 126.71V124.372C64.7243 124.278 64.6308 124.091 64.4437 124.091C64.2566 124.185 64.1631 124.278 64.1631 124.372ZM64.1631 129.61V131.948C64.1631 132.042 64.2566 132.229 64.4437 132.229C64.5372 132.229 64.7243 132.135 64.7243 131.948V129.61C64.7243 129.516 64.6308 129.329 64.4437 129.329C64.2566 129.423 64.1631 129.516 64.1631 129.61ZM64.1631 134.848V137.187C64.1631 137.28 64.2566 137.467 64.4437 137.467C64.5372 137.467 64.7243 137.374 64.7243 137.187V134.848C64.7243 134.755 64.6308 134.567 64.4437 134.567C64.2566 134.661 64.1631 134.755 64.1631 134.848ZM64.1631 140.086V142.425C64.1631 142.518 64.2566 142.705 64.4437 142.705C64.5372 142.705 64.7243 142.612 64.7243 142.425V140.086C64.7243 139.993 64.6308 139.806 64.4437 139.806C64.2566 139.899 64.1631 139.993 64.1631 140.086ZM64.1631 145.325V147.663C64.1631 147.757 64.2566 147.944 64.4437 147.944C64.5372 147.944 64.7243 147.85 64.7243 147.663V145.325C64.7243 145.231 64.6308 145.044 64.4437 145.044C64.2566 145.137 64.1631 145.231 64.1631 145.325ZM133.476 148.598C133.476 148.598 133.476 148.692 133.57 148.692C133.663 148.598 133.663 148.411 133.757 148.318C133.57 148.318 133.476 148.411 133.476 148.598ZM128.238 149.066C128.238 149.16 128.331 149.253 128.518 149.253L130.857 148.973C130.95 148.973 131.044 148.879 131.044 148.692C131.044 148.598 130.95 148.505 130.763 148.505L128.425 148.785C128.331 148.879 128.238 148.973 128.238 149.066ZM123.093 149.627C123.093 149.721 123.187 149.814 123.374 149.814L125.712 149.534C125.806 149.534 125.899 149.44 125.899 149.253C125.899 149.16 125.806 149.066 125.619 149.066L123.28 149.347C123.187 149.347 123.093 149.534 123.093 149.627ZM117.855 150.189C117.855 150.282 117.948 150.376 118.136 150.376L120.474 150.095C120.568 150.095 120.661 150.002 120.661 149.814C120.661 149.721 120.568 149.627 120.38 149.627L118.042 149.908C117.948 149.908 117.855 150.002 117.855 150.189ZM112.617 150.656C112.617 150.75 112.71 150.843 112.897 150.843L115.236 150.563C115.329 150.563 115.423 150.469 115.423 150.282C115.423 150.189 115.329 150.095 115.142 150.095L112.804 150.376C112.71 150.469 112.617 150.563 112.617 150.656ZM107.472 151.218C107.472 151.311 107.566 151.405 107.753 151.405L110.091 151.124C110.185 151.124 110.278 151.03 110.278 150.843C110.278 150.75 110.185 150.656 109.998 150.656L107.659 150.937C107.472 150.937 107.378 151.124 107.472 151.218ZM102.234 151.779C102.234 151.872 102.327 151.966 102.514 151.966L104.853 151.685C104.946 151.685 105.04 151.592 105.04 151.405C105.04 151.311 104.946 151.218 104.759 151.218L102.421 151.498C102.327 151.498 102.234 151.592 102.234 151.779ZM96.9955 152.246C96.9955 152.34 97.0891 152.434 97.2761 152.434L99.6146 152.153C99.7082 152.153 99.8017 152.059 99.8017 151.872C99.8017 151.779 99.7082 151.685 99.5211 151.685L97.1826 151.966C97.0891 152.059 96.9955 152.153 96.9955 152.246ZM91.8508 152.808C91.8508 152.901 91.9444 152.995 92.1315 152.995L94.47 152.714C94.5635 152.714 94.657 152.621 94.657 152.434C94.657 152.34 94.5635 152.246 94.3764 152.246L92.0379 152.527C91.8508 152.527 91.7573 152.714 91.8508 152.808ZM64.1631 150.563V152.621C64.1631 152.714 64.1631 152.901 64.1631 152.995C64.1631 153.088 64.2566 153.182 64.4437 153.182C64.5372 153.182 64.6308 153.088 64.6308 152.901C64.6308 152.808 64.6308 152.714 64.6308 152.621V150.563C64.6308 150.469 64.5372 150.282 64.3502 150.282C64.2566 150.376 64.1631 150.469 64.1631 150.563ZM86.6126 153.369C86.6126 153.462 86.7062 153.556 86.8932 153.556L89.2317 153.275C89.3253 153.275 89.4188 153.182 89.4188 152.995C89.4188 152.901 89.3253 152.808 89.1382 152.808L86.7997 153.088C86.7062 153.088 86.6126 153.182 86.6126 153.369ZM81.3744 153.837C81.3744 153.93 81.4679 154.024 81.655 154.024L83.9935 153.743C84.087 153.743 84.1806 153.65 84.1806 153.462C84.1806 153.369 84.087 153.275 83.9 153.275L81.5615 153.556C81.4679 153.65 81.3744 153.743 81.3744 153.837ZM76.2297 154.398C76.2297 154.491 76.3232 154.585 76.5103 154.585L78.8488 154.304C78.9424 154.304 79.0359 154.211 79.0359 154.024C79.0359 153.93 78.9424 153.837 78.7553 153.837L76.4168 154.117C76.2297 154.117 76.1362 154.304 76.2297 154.398ZM70.9915 154.959C70.9915 155.053 71.085 155.146 71.2721 155.146L73.6106 154.866C73.7041 154.866 73.7977 154.772 73.7977 154.585C73.7977 154.491 73.7041 154.398 73.5171 154.398L71.1786 154.678C71.085 154.678 70.9915 154.772 70.9915 154.959ZM65.9403 155.333C66.221 155.427 66.5951 155.52 66.9693 155.52C67.0628 155.52 67.1564 155.52 67.2499 155.52L68.4659 155.427C68.5595 155.427 68.653 155.333 68.653 155.146C68.653 155.053 68.5595 154.959 68.3724 154.959L67.1564 155.053C66.7822 155.053 66.408 155.053 66.1274 154.866C66.0339 154.772 65.8468 154.866 65.8468 154.959C65.7533 155.146 65.8468 155.333 65.9403 155.333Z" fill="#263238"/>
<path d="M49.0099 123.247L72.6754 120.815C73.4237 120.721 73.985 121.283 73.985 122.031V130.075C73.985 130.73 73.5173 131.198 72.956 131.291L49.1034 133.723C48.6357 133.723 48.2615 133.536 47.9809 133.162L45.9231 129.982C45.736 129.608 45.6424 129.233 45.8295 128.859L48.0745 123.995C48.168 123.528 48.5422 123.247 49.0099 123.247Z" fill="#8BC0C2"/>
<path opacity="0.2" d="M49.0099 123.247L72.6754 120.815C73.4237 120.721 73.985 121.283 73.985 122.031V130.075C73.985 130.73 73.5173 131.198 72.956 131.291L49.1034 133.723C48.6357 133.723 48.2615 133.536 47.9809 133.162L45.9231 129.982C45.736 129.608 45.6424 129.233 45.8295 128.859L48.0745 123.995C48.168 123.528 48.5422 123.247 49.0099 123.247Z" fill="black"/>
<path d="M49.0098 128.393C49.0098 129.796 50.0387 131.012 51.3483 131.012C52.6578 131.012 53.6868 129.796 53.6868 128.393C53.6868 126.989 52.6578 125.773 51.3483 125.773C50.0387 125.773 49.0098 126.896 49.0098 128.393Z" fill="#8BC0C2"/>
<path d="M42.9998 65.6235C42.9063 62.3496 40.2871 59.7305 37.1068 59.7305C33.9264 59.7305 31.3073 62.4431 31.4009 65.8106C31.4944 69.0844 34.1135 71.7036 37.2939 71.7036C40.4742 71.7036 42.9998 68.9909 42.9998 65.6235Z" fill="#FFBB01" stroke="#C4900C" stroke-width="0.5" stroke-miterlimit="10"/>
<path d="M36.8263 70.2999V69.1774C36.1715 69.1774 35.5167 68.9904 35.1426 68.7097L35.4232 67.9614C35.7974 68.242 36.3586 68.4291 37.0134 68.4291C37.7617 68.4291 38.3229 67.9614 38.3229 67.3066C38.3229 66.6519 37.8552 66.2777 37.1069 65.9971C35.9844 65.5294 35.3297 65.0617 35.3297 64.1263C35.3297 63.1909 35.9844 62.4426 36.9198 62.349V61.2266H37.5746V62.349C38.2294 62.349 38.6971 62.5361 38.9777 62.7232L38.6971 63.4715C38.51 63.378 38.0423 63.0974 37.294 63.0974C36.4521 63.0974 36.1715 63.6586 36.1715 64.0328C36.1715 64.594 36.5457 64.8746 37.5746 65.2488C38.6971 65.7165 39.2583 66.2777 39.2583 67.3066C39.2583 68.1485 38.6971 68.9904 37.5746 69.271V70.3935L36.8263 70.2999Z" fill="white"/>
<path d="M114.699 101.152C116.399 101.152 117.699 99.7523 117.699 98.1523C117.699 96.4523 116.299 95.1523 114.699 95.1523C113.099 95.1523 111.699 96.5523 111.699 98.1523C111.699 99.8523 112.999 101.152 114.699 101.152Z" fill="#EAD7C5"/>
<path d="M186.4 104.752C191.9 104.052 196.7 103.452 196.8 101.652C196.9 99.8519 192.5 98.2519 187 97.9519C181.5 97.7519 174 102.152 173.9 103.952C173.7 105.752 180.5 105.452 186.4 104.752Z" fill="#3849CB"/>
<path d="M109.3 109.553C113.5 115.453 118.6 119.053 120.6 117.653C122.6 116.253 120.8 110.253 116.6 104.353C112.4 98.4531 108 96.1531 105.4 96.2531C103.9 97.3531 105.1 103.553 109.3 109.553Z" fill="#3849CB"/>
<path d="M122.9 107.252C122.9 107.252 111.3 115.352 103.1 119.652L102.3 120.052C99.5996 121.452 94.8996 122.452 92.4996 116.652C92.2996 116.152 92.0996 115.552 91.8996 115.052C87.0996 102.452 83.5996 77.3518 83.5996 77.3518C83.5996 77.3518 93.5996 73.2518 94.4996 75.8518C97.2996 83.9518 100.5 91.9518 104.1 99.6518L110.3 93.9518L122.9 107.252Z" fill="#FAA88D"/>
<path d="M103.099 119.65L102.299 120.05C99.5994 121.45 94.8994 122.45 92.4994 116.65C92.2994 116.15 92.0994 115.55 91.8994 115.05C93.6994 114.65 99.5994 114.15 103.099 119.65Z" fill="#EC8777"/>
<path d="M104.199 99.65L106.899 104.45C106.899 104.45 109.999 101.85 107.299 96.75L104.199 99.65Z" fill="#EC8777"/>
<path d="M117.899 110.653L122.599 107.453C118.199 102.653 112.499 96.4531 109.799 94.4531L109.199 94.9531C112.099 96.7531 115.799 105.353 117.899 110.653Z" fill="#EC8777"/>
<path d="M145.6 72.6509L145.5 68.2509C145.5 68.2509 140.3 69.1509 139.2 66.5509C138 63.9509 139.9 41.4509 147.3 39.1509C154.6 36.8509 160.8 35.9509 162.5 42.5509C164.1 49.0509 160 61.7509 160 61.7509L159.9 69.5509C159.9 69.5509 156.7 93.1509 145.4 90.9509C134 88.7509 145.6 72.6509 145.6 72.6509Z" fill="#FAA88D"/>
<path d="M148.899 46.5516L149.099 51.5516L154.799 50.6516V45.8516L148.899 46.5516Z" fill="#EC8777"/>
<path d="M145.6 72.6523C145.6 72.6523 141.6 80.2523 148.4 81.2523C152.6 81.8523 150.3 90.0523 150.3 90.0523L134.1 88.3523L145.6 72.6523Z" fill="#EC8777"/>
<path d="M141.7 46.4531L140.5 50.2531L145.6 51.2531L146.2 47.2531L141.7 46.4531Z" fill="#EC8777"/>
<path d="M158.4 56.5523C158.4 56.8523 158.3 57.1523 158.2 57.4523C158.1 57.7523 157.9 58.0523 157.7 58.2523C157.5 58.4523 157.2 58.6523 156.9 58.7523C156.6 58.8523 156.3 58.9523 156 58.9523C155.4 58.9523 154.7 58.6523 154.3 58.2523C153.8 57.7523 153.6 57.1523 153.6 56.5523C153.6 55.9523 153.9 55.3523 154.3 54.8523C154.8 54.3523 155.4 54.1523 156 54.1523C156.3 54.1523 156.6 54.2523 156.9 54.3523C157.2 54.4523 157.5 54.6523 157.7 54.8523C157.9 55.0523 158.1 55.3523 158.2 55.6523C158.3 55.8523 158.4 56.1523 158.4 56.5523Z" fill="#EC8777"/>
<path d="M196.7 101.35C196.7 101.35 186.1 70.0504 177.9 68.8504C169.7 67.5504 159.7 69.6504 159.7 69.6504C159.7 69.6504 155.2 80.8504 147.6 81.4504C140 82.0504 145.6 72.6504 145.6 72.6504C145.6 72.6504 138.4 73.7504 128.4 79.5504C118.4 85.3504 105.1 96.3504 105.1 96.3504C106.7 95.4504 119.6 110.75 120.4 116.85L110.2 149.95L179.9 150.85L173.6 104.05C179.3 100.95 193.5 98.9504 196.7 101.35Z" fill="#77A1FF"/>
<path d="M130.2 90.7513C130.2 90.7513 143.1 85.0513 165.9 85.3513C166.4 85.3513 166.9 85.5513 167.3 85.8513C167.7 86.1513 167.9 86.6513 168 87.1513C168.4 90.1513 169.5 96.0513 172.7 96.7513L180 151.351L107.6 151.651L127.2 93.7513C127.2 93.8513 128.2 91.4513 130.2 90.7513Z" fill="#3071B2"/>
<path d="M159.8 68.3516L161.3 91.3516C161.3 91.9516 161.6 92.6516 162.1 93.0516C162.6 93.4516 163.2 93.7516 163.8 93.7516C164.2 93.7516 164.5 93.6516 164.9 93.5516C165.2 93.3516 165.5 93.1516 165.8 92.8516C166 92.5516 166.2 92.2516 166.3 91.8516C166.4 91.4516 166.4 91.1516 166.3 90.7516L162.7 69.0516L159.8 68.3516Z" fill="#EC8777"/>
<path d="M145.5 71.75L143.5 73.15C143.5 73.15 135.4 80.95 132.2 92.15C132.1 92.45 132.1 92.85 132.2 93.15C132.3 93.45 132.4 93.75 132.6 94.05C132.8 94.35 133.1 94.55 133.4 94.65C133.7 94.75 134 94.85 134.4 94.85C135.1 94.75 135.8 94.55 136.3 94.05C136.8 93.55 137.2 92.95 137.3 92.25C138 88.95 140.1 82.35 145.6 72.75L145.5 71.75Z" fill="#EC8777"/>
<path d="M109 93.2531C113.5 94.2531 121.1 103.353 123.6 108.153C123.6 108.153 123.6 108.153 123.6 108.253C123.6 108.253 123.6 108.253 123.7 108.253C123.7 108.253 123.7 108.253 123.8 108.253C123.8 108.253 123.8 108.253 123.9 108.253C123.9 108.253 123.9 108.253 124 108.253C124 108.253 124 108.253 124 108.153C124 108.153 124 108.153 124 108.053C124 108.053 124 108.053 124 107.953C121.8 103.753 114.4 94.3531 109.5 92.9531L109 93.2531Z" fill="#3849CB"/>
<path d="M119.1 121.153C119 121.153 119 121.153 119.1 121.153C119 121.153 119 121.053 119 121.053C119 121.053 119 121.053 119 120.953C119 120.953 119 120.953 119 120.853C119.1 120.553 126.7 94.2531 128.2 89.5531C128.2 89.5531 128.2 89.5531 128.2 89.4531C128.2 89.4531 128.2 89.4531 128.3 89.4531C128.3 89.4531 128.3 89.4531 128.4 89.4531C128.4 89.4531 128.4 89.4531 128.5 89.4531C128.5 89.4531 128.5 89.4531 128.5 89.5531C128.5 89.6531 128.5 89.5531 128.5 89.6531C127 94.3531 119.4 120.753 119.3 120.953C119.2 121.153 119.2 121.153 119.1 121.153Z" fill="#3849CB"/>
<path d="M155.099 118.353L148.699 108.353C148.499 108.053 148.199 107.753 147.799 107.653C147.399 107.553 147.099 107.553 146.699 107.653L116.899 117.153C116.799 117.153 116.699 117.253 116.599 117.353C116.499 117.453 116.499 117.553 116.399 117.653C116.399 117.753 116.399 117.853 116.399 117.953C116.399 118.053 116.499 118.153 116.599 118.253L130.199 131.853C130.399 132.053 130.599 132.153 130.899 132.253C131.199 132.353 131.499 132.353 131.699 132.253L156.999 127.253C157.099 127.253 157.199 127.153 157.299 127.153C157.399 127.053 157.399 127.053 157.499 126.953C157.499 126.853 157.599 126.753 157.599 126.653C157.599 126.553 157.599 126.453 157.599 126.353L155.199 118.453C155.099 118.453 155.099 118.453 155.099 118.353Z" fill="#3F3F3F"/>
<path d="M155.099 118.951L148.699 108.951C148.499 108.651 148.199 108.351 147.799 108.251C147.399 108.151 147.099 108.151 146.699 108.251L116.899 117.751C116.799 117.751 116.699 117.851 116.599 117.951C116.499 118.051 116.499 118.151 116.399 118.251C116.399 118.351 116.399 118.451 116.399 118.551C116.399 118.651 116.499 118.751 116.599 118.851L130.199 132.451C130.399 132.651 130.599 132.851 130.899 132.851C131.199 132.951 131.499 132.951 131.699 132.851L156.999 127.851C157.099 127.851 157.199 127.751 157.299 127.751C157.399 127.651 157.399 127.651 157.499 127.551C157.499 127.451 157.599 127.351 157.599 127.251C157.599 127.151 157.599 127.051 157.599 126.951L155.199 119.051C155.099 119.051 155.099 118.951 155.099 118.951Z" fill="#5B5B5B"/>
<path d="M146.6 112.252C147 112.252 147.4 111.852 147.4 111.452C147.4 111.052 147 110.652 146.6 110.652C146.2 110.652 145.8 111.052 145.8 111.452C145.8 111.852 146.1 112.252 146.6 112.252Z" fill="#3F3F3F"/>
<path d="M146.6 112.35C147 112.35 147.4 111.95 147.4 111.55C147.4 111.15 147 110.75 146.6 110.75C146.2 110.75 145.8 111.15 145.8 111.55C145.8 112.05 146.1 112.35 146.6 112.35Z" fill="#1E1E1E"/>
<path d="M139.7 125.052C142.1 124.452 143.7 122.452 143.2 120.552C142.7 118.652 140.4 117.652 138 118.252C135.6 118.852 134 120.852 134.5 122.752C135 124.652 137.3 125.752 139.7 125.052Z" fill="#848484"/>
<path d="M131.6 127.452C131.6 127.452 142.3 131.152 151.8 130.352C151.8 130.352 157.2 127.052 156.5 126.752C155.8 126.452 141.9 124.652 141.9 124.652L131.6 127.452Z" fill="#EC8777"/>
<path d="M196 136.151C190.5 138.051 173.6 133.751 160.5 130.751C146.2 131.751 141.1 125.551 141.1 125.551C125.9 129.751 126.6 126.051 126.6 126.051C132.6 122.251 155.1 119.051 155.1 119.051C155.1 119.051 148.6 109.851 150.2 109.251C151.8 108.651 157.2 113.251 160.9 115.951C164.6 118.651 183.7 119.351 183.7 119.351L177.4 105.351L176.3 102.851C183 100.351 191.3 100.051 194.7 100.551C194.7 100.551 195.3 101.951 196.1 104.151C197.9 108.651 200.9 116.451 203.1 121.851C206.4 129.951 204.5 133.251 196 136.151Z" fill="#FAA88D"/>
<path d="M204.599 128.652C203.599 128.152 202.399 128.052 201.399 128.352C200.799 128.552 200.299 128.752 199.799 129.152C199.299 129.552 198.899 129.952 198.599 130.552C198.299 131.052 198.099 131.652 197.999 132.252C197.899 132.852 197.999 133.452 198.099 134.052C198.199 134.452 198.399 134.852 198.599 135.252C202.399 133.552 204.399 131.552 204.599 128.652Z" fill="#EC8777"/>
<path d="M183.7 119.252L190.2 119.552C188 117.352 185.2 115.952 182.1 115.352L183.7 119.252Z" fill="#EC8777"/>
<path d="M155.1 119.053L156.4 118.853L150.5 111.853C150.5 111.753 154.2 117.853 155.1 119.053Z" fill="#EC8777"/>
<path d="M165.499 117.45C165.499 117.45 167.099 126.25 161.899 131.05L167.599 132.35C167.599 132.35 173.199 127.55 170.899 118.25C170.899 118.25 170.799 118.05 170.599 117.95L165.399 117.25C165.399 117.25 165.299 117.25 165.299 117.35L165.499 117.45Z" fill="#383838"/>
<path d="M171.099 126.649C170.599 124.749 168.299 123.749 165.899 124.349C163.499 124.949 161.999 127.049 162.499 128.849L162.799 130.049L163.099 129.949C163.699 130.549 164.399 130.949 165.299 131.149C166.199 131.349 166.999 131.349 167.799 131.049C168.599 130.849 169.399 130.449 169.999 129.949C170.599 129.349 171.099 128.649 171.299 127.849L171.599 127.749L171.099 126.649Z" fill="#606060"/>
<path d="M167.9 132.253C170.2 131.653 171.7 129.753 171.2 128.053C170.7 126.353 168.5 125.453 166.2 126.053C163.9 126.653 162.4 128.553 162.9 130.253C163.3 131.953 165.6 132.853 167.9 132.253Z" fill="#BCBCBC"/>
<path d="M169.4 124.453L169.2 124.753C169.1 124.853 169.2 125.053 169.5 125.253C169.7 125.353 170 125.353 170 125.253L170.2 124.953L169.4 124.453Z" fill="#848484"/>
<path d="M170.099 125.052C170.199 124.952 170.099 124.752 169.799 124.552C169.599 124.452 169.299 124.452 169.299 124.552C169.199 124.652 169.299 124.852 169.599 125.052C169.799 125.152 169.999 125.152 170.099 125.052Z" fill="#A5A5A5"/>
<path d="M167.299 129.651L163.899 129.051" stroke="#606060" stroke-width="0.25" stroke-miterlimit="10" stroke-linecap="round"/>
<path d="M167.3 129.652L169.5 128.652" stroke="#606060" stroke-width="0.25" stroke-miterlimit="10" stroke-linecap="round"/>
<path d="M196.1 104.049C189.2 102.249 180.1 104.449 177.4 105.249L176.3 102.749C183 100.249 191.3 99.9493 194.7 100.449C194.7 100.449 195.2 101.849 196.1 104.049Z" fill="#EC8777"/>
<path d="M154.9 45.75C155 45.35 154.4 45.25 154.2 45.15C150.9 43.85 148.7 46.25 149 46.85C149.3 47.45 154.8 46.15 154.9 45.75Z" fill="#282828"/>
<path d="M140.299 46.05C140.199 45.65 140.799 45.55 141.099 45.55C144.499 44.45 146.599 47.05 146.199 47.55C145.699 48.05 140.399 46.45 140.299 46.05Z" fill="#282828"/>
<path d="M143.7 59.1509C145.6 59.0509 150.1 57.3509 150.5 58.1509C150.9 58.9509 148.3 62.2509 145.2 62.4509C142.2 62.4509 141.8 59.2509 143.7 59.1509Z" fill="white"/>
<path d="M158.499 50.8509C158.499 50.8509 159.099 42.8509 157.399 40.6509C155.699 38.5509 147.199 43.6509 145.099 42.1509C143.099 40.6509 141.999 35.7509 145.099 34.2509C148.199 32.7509 154.499 34.6509 158.299 34.5509C162.099 34.4509 166.399 32.8509 168.599 41.0509C170.799 49.2509 164.599 60.3509 163.199 61.2509C162.199 61.8509 160.999 62.0509 159.799 61.8509L161.999 51.5509L158.499 50.8509Z" fill="#282828"/>
<path d="M153.099 51.8516C152.799 51.9516 152.499 52.0516 152.199 52.0516H151.899C150.399 52.2516 149.199 51.9516 149.099 51.4516C148.999 50.8516 149.899 50.3516 151.199 50.0516L151.799 49.9516C152.199 49.8516 152.599 49.8516 153.099 49.8516C154.099 49.8516 154.799 50.1516 154.899 50.5516C154.899 50.9516 154.199 51.5516 153.099 51.8516Z" fill="white"/>
<path d="M145.899 51.35C145.799 51.85 144.799 52.05 143.599 51.95C143.299 51.95 143.099 51.85 142.799 51.85C142.499 51.85 142.299 51.75 141.999 51.65C140.799 51.25 139.999 50.75 140.099 50.25C140.199 49.75 141.199 49.55 142.399 49.65C142.699 49.65 142.899 49.75 143.199 49.75C143.499 49.75 143.699 49.85 143.999 49.95C145.199 50.35 145.999 50.85 145.899 51.35Z" fill="white"/>
<path d="M146.799 47.0508L143.899 56.3508L147.199 56.5508L146.799 47.0508Z" fill="#FAA88D"/>
<path d="M145.5 68.3508C147.5 67.9508 149.5 67.3508 151.4 66.5508C149.6 69.0508 147.7 70.8508 145.6 71.3508L145.5 68.3508Z" fill="#EC8777"/>
<path d="M146.4 62.8516C146.4 63.0516 146 63.3516 145.3 63.4516C144.7 63.5516 144.2 63.2516 144.1 63.0516C144.1 62.8516 144.6 62.8516 145.2 62.7516C145.9 62.7516 146.4 62.6516 146.4 62.8516Z" fill="#EC8777"/>
<path d="M154.9 50.55C154.8 50.35 154.7 50.25 154.5 50.15C154.4 50.05 154.2 49.95 154 49.95C153.6 49.85 153.1 49.75 152.6 49.75C151.7 49.85 150.8 50.05 150 50.45C149.8 50.55 150 50.85 150.2 50.75C150.9 50.35 151.7 50.15 152.5 50.15C152.9 50.15 153.3 50.15 153.7 50.25C154 50.35 154.5 50.45 154.6 50.75C154.7 51.05 155 50.75 154.9 50.55Z" fill="#282828"/>
<path d="M145.799 50.8517C144.599 49.7517 142.899 49.5517 141.299 49.6517C141.099 49.6517 141.099 50.0517 141.299 50.0517C142.799 49.9517 144.399 50.0517 145.499 51.1517C145.599 51.2517 145.899 51.0517 145.799 50.8517Z" fill="#282828"/>
<path d="M146.7 56.3504H144.8C144.5 56.3504 144.3 56.3504 144.2 55.9504C144.2 55.7504 144.3 55.5504 144.4 55.4504L144.6 54.9504C144.7 54.5504 144.9 54.1504 145 53.7504C145.5 52.2504 145.9 50.7504 146.2 49.1504C146.2 48.9504 145.9 48.8504 145.8 49.0504C145.5 50.9504 144.9 52.7504 144.3 54.5504C144.1 54.9504 143.9 55.3504 143.8 55.8504C143.7 55.9504 143.7 56.1504 143.8 56.2504C143.8 56.3504 143.9 56.5504 144 56.5504C144.3 56.6504 144.7 56.7504 145 56.6504H146.6C146.6 56.6504 146.7 56.6504 146.7 56.5504C146.7 56.4504 146.7 56.4504 146.7 56.4504V56.3504Z" fill="#EC8777"/>
<path d="M173.8 105.15C173.7 105.05 173.7 105.05 173.6 105.05C172.6 99.05 170.5 80.65 170.5 80.45C170.5 80.45 170.5 80.45 170.5 80.35C170.5 80.35 170.5 80.35 170.5 80.25C170.5 80.25 170.5 80.25 170.6 80.25C170.6 80.25 170.6 80.25 170.7 80.25C170.7 80.25 170.7 80.25 170.8 80.25C170.8 80.25 170.8 80.25 170.8 80.35C170.8 80.55 172.9 98.85 173.9 104.85C173.9 104.85 173.9 104.85 173.9 104.95C173.9 104.95 173.9 104.95 173.9 105.05C173.9 105.15 173.9 105.15 173.8 105.15C173.9 105.15 173.9 105.15 173.8 105.15Z" fill="#3849CB"/>
<path d="M148 75.4523C149.3 76.1523 150.9 76.0523 152.9 74.6523C152.6 75.2523 152.2 75.8523 151.7 76.2523C151.2 76.6523 150.5 76.9523 149.8 77.0523C147.5 77.1523 148 75.4523 148 75.4523Z" fill="#EC8777"/>
<path d="M194.3 94.6511C188.3 93.5511 175.8 95.2511 172.8 98.4511V98.5511V98.6511H172.9C172.9 98.6511 173 98.6511 173 98.5511C175.9 95.4511 188.6 93.6511 194.4 94.8511C194.4 94.8511 194.4 94.7511 194.3 94.6511Z" fill="#3849CB"/>
<path d="M144.099 39.3513C143.699 38.3513 143.499 37.2513 143.499 36.1513C143.499 35.6513 143.699 35.1513 143.999 34.7513C144.299 34.3513 144.699 34.0513 145.199 33.8513C146.299 33.4513 147.399 33.4513 148.599 33.6513C149.799 33.7513 150.899 34.0513 151.999 34.4513C152.199 34.5513 152.299 34.1513 152.099 34.0513C150.899 33.5513 149.599 33.2513 148.399 33.1513C147.199 32.9513 145.999 33.0513 144.899 33.5513C144.399 33.7513 143.999 34.1513 143.799 34.5513C143.499 34.9513 143.299 35.4513 143.299 35.9513C143.199 37.1513 143.399 38.3513 143.899 39.4513C143.799 39.6513 144.199 39.5513 144.099 39.3513Z" fill="#282828"/>
<path d="M163.299 34.7496C164.499 34.8496 165.699 35.3496 166.699 36.0496C167.699 36.8496 168.399 37.8496 168.799 39.0496C169.699 41.6496 169.299 44.4496 168.599 47.0496C168.599 47.0496 168.599 47.0496 168.599 47.1496C168.599 47.1496 168.599 47.1496 168.599 47.2496C168.599 47.2496 168.599 47.2496 168.599 47.3496C168.599 47.3496 168.599 47.3496 168.699 47.3496C168.699 47.3496 168.699 47.3496 168.799 47.3496C168.799 47.3496 168.799 47.3496 168.899 47.3496C168.899 47.3496 168.899 47.3496 168.999 47.3496C168.999 47.3496 168.999 47.3496 168.999 47.2496C169.699 45.0496 169.999 42.7496 169.599 40.4496C169.399 39.4496 169.099 38.4496 168.499 37.6496C167.999 36.7496 167.299 36.0496 166.399 35.4496C165.499 34.8496 164.399 34.4496 163.299 34.4496C163.099 34.3496 163.099 34.7496 163.299 34.7496Z" fill="#282828"/>
<path d="M145.9 41.6508C144.9 41.1508 144 40.2508 143.4 39.2508C142.8 38.2508 142.5 37.1508 142.5 35.9508C142.5 35.7508 142.1 35.7508 142.1 35.9508C142.1 37.1508 142.4 38.3508 143 39.4508C143.6 40.4508 144.5 41.3508 145.6 41.9508C145.9 42.1508 146.1 41.7508 145.9 41.6508Z" fill="#282828"/>
<path d="M161.7 56.7516C163.4 56.7516 164.9 55.3516 164.9 53.5516C164.9 51.8516 163.5 50.3516 161.7 50.3516C160 50.3516 158.5 51.7516 158.5 53.5516C158.6 55.3516 160 56.7516 161.7 56.7516Z" fill="#FAA88D"/>
<path d="M158.499 50.8516L157.699 53.6516L158.699 53.9516C158.899 52.8516 159.299 51.8516 159.899 51.0516L158.499 50.8516Z" fill="#282828"/>
<path d="M161.799 55.6516C161.499 55.6516 161.199 55.6516 160.999 55.4516C160.799 55.3516 160.599 55.2516 160.399 55.0516L160.299 54.9516C160.299 54.9516 160.199 54.8516 160.199 54.7516C160.199 54.6516 160.199 54.6516 160.199 54.5516C160.199 54.4516 160.299 54.4516 160.299 54.4516C160.399 54.4516 160.399 54.4516 160.499 54.4516C160.599 54.4516 160.699 54.4516 160.799 54.4516C160.899 54.4516 160.999 54.3516 160.999 54.2516C160.999 54.1516 160.999 54.0516 160.999 53.9516C160.999 53.8516 160.899 53.7516 160.799 53.7516C160.699 53.7516 160.699 53.7516 160.599 53.7516C160.499 53.7516 160.499 53.7516 160.399 53.7516C160.299 53.7516 160.299 53.8516 160.299 53.8516L160.199 53.9516L160.099 54.0516H159.999C159.899 54.0516 159.899 54.0516 159.899 53.9516L159.799 53.8516L159.699 53.6516C159.699 53.3516 159.699 52.9516 159.899 52.6516C160.099 52.1516 160.499 51.7516 160.999 51.5516C161.199 51.4516 161.499 51.3516 161.799 51.3516C162.099 51.3516 162.299 51.4516 162.599 51.5516C162.599 51.5516 162.699 51.5516 162.699 51.6516C162.699 51.6516 162.699 51.7516 162.799 51.7516V51.8516V51.9516C162.799 52.0516 162.699 52.0516 162.699 52.0516C162.599 52.0516 162.599 52.0516 162.499 52.0516C162.299 51.9516 162.099 51.9516 161.899 51.9516C161.699 51.9516 161.499 51.9516 161.299 52.0516C161.099 52.1516 160.899 52.2516 160.799 52.3516C160.699 52.4516 160.499 52.6516 160.499 52.8516C160.499 52.9516 160.399 53.0516 160.399 53.2516C160.499 53.1516 160.699 53.1516 160.799 53.1516C160.899 53.1516 161.099 53.1516 161.199 53.2516C161.399 53.3516 161.599 53.5516 161.699 53.7516C161.799 53.9516 161.799 54.2516 161.699 54.4516C161.599 54.6516 161.499 54.8516 161.299 54.9516H161.399C161.599 55.0516 161.799 55.0516 161.999 55.0516C162.199 55.0516 162.399 55.0516 162.599 54.9516C162.799 54.8516 162.999 54.7516 163.099 54.6516C163.199 54.5516 163.399 54.3516 163.399 54.1516C163.399 54.0516 163.499 54.0516 163.499 54.0516C163.599 54.0516 163.599 54.0516 163.699 54.0516C163.799 54.0516 163.799 54.1516 163.799 54.1516C163.799 54.2516 163.799 54.2516 163.799 54.3516C163.599 54.7516 163.399 55.0516 163.099 55.2516C162.599 55.5516 162.199 55.6516 161.799 55.6516Z" fill="#EC8777"/>
<path d="M151.799 51.95C152.399 51.95 152.899 51.45 152.899 50.85C152.899 50.25 152.399 49.75 151.799 49.75C151.199 49.75 150.699 50.25 150.699 50.85C150.699 51.55 151.199 51.95 151.799 51.95Z" fill="#282828"/>
<path d="M142.8 51.6523C143.4 51.6523 143.8 51.1523 143.8 50.6523C143.8 50.0523 143.3 49.6523 142.8 49.6523C142.2 49.6523 141.8 50.1523 141.8 50.6523C141.8 51.2523 142.2 51.6523 142.8 51.6523Z" fill="#282828"/>
<path d="M77.1994 65.4517C78.2994 66.3517 80.4994 70.3517 80.4994 70.3517C81.6994 73.7517 81.8994 75.3517 82.9994 77.0517C83.5994 77.9517 84.0994 81.3517 84.0994 81.3517C84.0994 81.3517 91.3994 82.7517 94.8994 79.0517C94.8994 79.0517 94.4994 76.0517 94.7994 75.2517C95.3994 73.5517 96.3994 72.9517 96.7994 69.5517C97.2994 66.9517 98.1994 64.4517 99.3994 62.1517C99.3994 62.1517 98.3994 60.5517 97.0994 61.8517C95.7994 63.0517 95.2994 65.8517 94.5994 66.2517C94.4994 66.3517 94.2994 66.3517 94.0994 66.4517C93.7994 66.5517 93.4994 66.5517 93.2994 66.5517C92.9994 66.5517 92.6994 66.4517 92.4994 66.2517C92.4994 66.2517 92.3994 66.2517 92.3994 66.1517C90.8994 64.8517 89.8994 60.4517 89.6994 58.4517C89.3994 55.6517 88.6994 51.8517 87.0994 52.7517C85.4994 53.6517 87.2994 55.2517 86.8994 61.5517L86.4994 61.9517C86.3994 62.4517 84.4994 57.9517 83.5994 54.0517C82.9994 51.4517 81.3994 52.6517 81.0994 53.5517C80.7994 54.4517 81.7994 57.0517 82.1994 58.9517C82.4994 60.2517 83.3994 62.7517 83.5994 63.5517L82.8994 64.0517C79.5994 59.8517 79.5994 56.5517 78.0994 56.7517C76.4994 56.8517 77.6994 60.7517 78.6994 62.0517C79.4994 63.3517 80.0994 64.6517 80.6994 66.0517C77.4994 63.3517 77.0994 60.8517 75.7994 61.2517C74.5994 61.5517 76.0994 64.5517 77.1994 65.4517Z" fill="#FAA88D"/>
<path d="M88.9999 72.5508C89.6999 68.8508 94.0999 66.5508 94.5999 66.3508C94.1999 66.4508 93.7999 66.5508 93.3999 66.4508C92.9999 66.4508 92.5999 66.2508 92.2999 66.0508C88.0999 68.7508 88.9999 72.5508 88.9999 72.5508Z" fill="#EC8777"/>
<path d="M103.199 51.5534C103.099 42.3534 95.6995 35.0534 86.7995 35.1534C77.8995 35.2534 70.7995 42.8534 70.8995 51.9534C70.9995 61.1534 78.3995 68.4534 87.2995 68.3534C96.2995 68.2534 103.399 60.6534 103.199 51.5534Z" fill="#D39B0D"/>
<path d="M100.7 51.4524C100.6 42.3524 93.7996 34.9524 85.5996 35.1524C77.3996 35.2524 70.7996 42.8524 70.8996 52.0524C70.9996 61.2524 77.7996 68.5524 85.9996 68.4524C94.1996 68.2524 100.8 60.6524 100.7 51.4524Z" fill="#FFBB01"/>
<path d="M84.8994 64.5523V61.4523C83.3994 61.4523 81.7994 60.9523 80.8994 60.1523L81.4994 58.0523C82.4994 58.7523 83.7994 59.3523 85.2994 59.3523C87.1994 59.3523 88.3994 58.0523 88.3994 56.2523C88.3994 54.5523 87.2994 53.5523 85.3994 52.6523C82.6994 51.4523 80.9994 50.0523 80.9994 47.3523C80.9994 44.7523 82.4994 42.7523 84.8994 42.2523V39.1523H86.4994V42.1523C88.0994 42.1523 89.1994 42.6523 89.8994 43.1523L89.2994 45.2523C88.6994 44.8523 87.6994 44.2523 85.9994 44.2523C83.9994 44.2523 83.1994 45.7523 83.2994 46.9523C83.2994 48.5523 84.2994 49.3523 86.5994 50.4523C89.2994 51.7523 90.6994 53.3523 90.6994 56.0523C90.6994 58.5523 89.2994 60.8523 86.5994 61.3523V64.5523H84.8994Z" fill="white"/>
<path opacity="0.5" d="M99.0994 62.8523L100.099 61.5523C100.099 61.5523 98.4994 60.1523 97.0994 60.4523C95.6994 60.7523 95.1994 63.3523 95.1994 63.3523C95.1994 63.3523 94.6994 65.7523 92.8994 67.2523C92.8994 67.2523 96.6994 65.1523 97.0994 64.6523C97.3994 64.1523 99.0994 62.8523 99.0994 62.8523Z" fill="#D39B0D"/>
<path d="M97.1996 61.8507C95.8996 63.0507 95.6996 65.4507 94.6996 66.2507C94.5996 66.3507 92.8996 67.4507 92.2996 67.8507L92.0996 68.5507C92.0996 68.5507 93.6996 70.4507 93.9996 70.6507C94.1996 70.7507 95.5996 70.4507 96.7996 70.1507C96.7996 69.9507 96.8996 69.7507 96.8996 69.5507C97.3996 66.9507 98.2996 64.4507 99.4996 62.1507C99.4996 62.2507 98.3996 60.6507 97.1996 61.8507Z" fill="#FAA88D"/>
<path d="M72.3994 57.1523C72.3994 57.1523 73.2994 59.8523 74.8994 62.0523C77.3994 65.2523 80.3994 66.5523 80.3994 66.5523" stroke="#FFEFDF" stroke-width="0.25" stroke-miterlimit="10" stroke-linecap="round"/>
<path d="M94.0996 38.0508C94.0996 38.0508 97.6996 40.3508 99.5996 44.9508C102.1 51.1508 99.7996 57.5508 99.7996 57.5508" stroke="#FFEFDF" stroke-width="0.25" stroke-miterlimit="10" stroke-linecap="round"/>
</g>
</svg>
