<svg width="25" height="25" viewBox="0 0 25 25" fill="none" xmlns="http://www.w3.org/2000/svg">
<path d="M11.0553 18.9079L11.4559 18.8983C13.1498 18.8578 14.7997 18.4311 16.2939 17.678C17.574 17.0328 18.9929 16.3383 19.3722 16.2333C20.1046 16.0304 20.3155 16.7138 19.7941 17.6001C19.2726 18.4863 17.3421 21.2466 15.145 21.8551C12.9479 22.4637 11.1667 21.8444 9.70193 22.2501L7.4983 22.7858" stroke="#E86C00" stroke-width="1.5" stroke-linecap="round" stroke-linejoin="round"/>
<path d="M3.67862 20.3558C4.20006 19.4695 6.43345 16.849 7.8982 16.4432C9.36296 16.0375 13.2636 16.4407 14.0239 16.972C14.7841 17.5032 13.276 18.7135 13.276 18.7135" stroke="#E86C00" stroke-width="1.5" stroke-linecap="round" stroke-linejoin="round"/>
<path d="M3.00293 14.2754H22.5072" stroke="#E86C00" stroke-width="1.5" stroke-linecap="round"/>
<path d="M21.4233 14.2746C21.4233 9.48678 17.5419 5.60547 12.7541 5.60547C7.96627 5.60547 4.08496 9.48678 4.08496 14.2746" stroke="#E86C00" stroke-width="1.5"/>
<path d="M13.3814 5.40331L14.002 4.07617L11.5164 4.07617L12.1301 5.40039L13.3814 5.40331Z" stroke="#E86C00" stroke-linecap="round" stroke-linejoin="round"/>
</svg>
